ffmpeg version 4.3.1 Copyright (c) 2000-2020 the FFmpeg developers
  built with gcc 9.3.0 (Alpine 9.3.0)
  configuration: --prefix=/usr --enable-avresample --enable-avfilter --enable-gnutls --enable-gpl --enable-libass --enable-libmp3lame --enable-libvorbis --enable-libvpx --enable-libxvid --enable-libx264 --enable-libx265 --enable-libtheora --enable-libv4l2 --enable-libdav1d --enable-postproc --enable-pic --enable-pthreads --enable-shared --enable-libxcb --enable-libssh --disable-stripping --disable-static --disable-librtmp --enable-vaapi --enable-vdpau --enable-libopus --enable-libaom --disable-debug
  libavutil      56. 51.100 / 56. 51.100
  libavcodec     58. 91.100 / 58. 91.100
  libavformat    58. 45.100 / 58. 45.100
  libavdevice    58. 10.100 / 58. 10.100
  libavfilter     7. 85.100 /  7. 85.100
  libavresample   4.  0.  0 /  4.  0.  0
  libswscale      5.  7.100 /  5.  7.100
  libswresample   3.  7.100 /  3.  7.100
  libpostproc    55.  7.100 / 55.  7.100
Input #0, image2pipe, from './tmp/gource.pipe':
  Duration: N/A, bitrate: N/A
    Stream #0:0: Video: ppm, rgb24, 1750x970, 60 fps, 60 tbr, 60 tbn, 60 tbc
Input #1, image2pipe, from './tmp/overlay.pipe':
  Duration: N/A, bitrate: N/A
    Stream #1:0: Video: ppm, rgb24, 1920x1080, 60 fps, 60 tbr, 60 tbn, 60 tbc
Input #2, png_pipe, from './logo.image':
  Duration: N/A, bitrate: N/A
    Stream #2:0: Video: png, rgba(pc), 593x160 [SAR 2835:2835 DAR 593:160], 25 tbr, 25 tbn, 25 tbc
Stream mapping:
  Stream #0:0 (ppm) -> pad
  Stream #1:0 (ppm) -> scale
  Stream #1:0 (ppm) -> scale
  Stream #2:0 (png) -> overlay:overlay
  overlay -> Stream #0:0 (libx264)
Press [q] to stop, [?] for help
[image2pipe @ 0x7f1c86ac43c0] Thread message queue blocking; consider raising the thread_queue_size option (current value: 8)
[image2pipe @ 0x7f1c8590f7c0] Thread message queue blocking; consider raising the thread_queue_size option (current value: 8)
[libx264 @ 0x555756485240] using cpu capabilities: MMX2 SSE2Fast SSSE3 SSE4.2 AVX FMA3 BMI2 AVX2 AVX512
[libx264 @ 0x555756485240] profile High, level 5.1, 4:2:0, 8-bit
[libx264 @ 0x555756485240] 264 - core 157 - H.264/MPEG-4 AVC codec - Copyleft 2003-2018 - http://www.videolan.org/x264.html - options: cabac=1 ref=3 deblock=1:0:0 analyse=0x3:0x113 me=hex subme=7 psy=1 psy_rd=1.00:0.00 mixed_ref=1 me_range=16 chroma_me=1 trellis=1 8x8dct=1 cqm=0 deadzone=21,11 fast_pskip=1 chroma_qp_offset=-2 threads=3 lookahead_threads=1 sliced_threads=0 nr=0 decimate=1 interlaced=0 bluray_compat=0 constrained_intra=0 bframes=0 weightp=2 keyint=250 keyint_min=25 scenecut=40 intra_refresh=0 rc_lookahead=40 rc=crf mbtree=1 crf=23.0 qcomp=0.60 qpmin=0 qpmax=69 qpstep=4 ip_ratio=1.40 aq=1:1.00
Output #0, mp4, to './output/gource.mp4':
  Metadata:
    encoder         : Lavf58.45.100
    Stream #0:0: Video: h264 (libx264) (avc1 / 0x31637661), yuv420p, 1920x1080, q=-1--1, 60 fps, 15360 tbn, 60 tbc (default)
    Metadata:
      encoder         : Lavc58.91.100 libx264
    Side data:
      cpb: bitrate max/min/avg: 0/0/0 buffer size: 0 vbv_delay: N/A
frame=   19 fps=0.0 q=0.0 size=       0kB time=00:00:00.00 bitrate=N/A speed=   0x    frame=   34 fps= 32 q=0.0 size=       0kB time=00:00:00.00 bitrate=N/A speed=   0x    frame=   44 fps= 28 q=0.0 size=       0kB time=00:00:00.00 bitrate=N/A speed=   0x    frame=   53 fps= 25 q=31.0 size=       0kB time=00:00:00.13 bitrate=   2.9kbits/s speed=0.0635x    frame=   63 fps= 24 q=31.0 size=       0kB time=00:00:00.30 bitrate=   1.3kbits/s speed=0.114x    frame=   72 fps= 23 q=31.0 size=       0kB time=00:00:00.45 bitrate=   0.9kbits/s speed=0.141x    frame=   79 fps= 21 q=31.0 size=       0kB time=00:00:00.56 bitrate=   0.7kbits/s speed=0.153x    frame=   86 fps= 20 q=31.0 size=       0kB time=00:00:00.68 bitrate=   0.6kbits/s speed=0.161x    frame=   94 fps= 19 q=31.0 size=       0kB time=00:00:00.81 bitrate=   0.5kbits/s speed=0.168x    frame=  100 fps= 18 q=31.0 size=       0kB time=00:00:00.91 bitrate=   0.4kbits/s speed=0.169x    frame=  106 fps= 18 q=31.0 size=       0kB time=00:00:01.01 bitrate=   0.4kbits/s speed=0.17x    frame=  113 fps= 17 q=31.0 size=       0kB time=00:00:01.13 bitrate=   0.3kbits/s speed=0.173x    frame=  119 fps= 17 q=31.0 size=       0kB time=00:00:01.23 bitrate=   0.3kbits/s speed=0.173x    frame=  124 fps= 16 q=31.0 size=       0kB time=00:00:01.31 bitrate=   0.3kbits/s speed=0.172x    frame=  129 fps= 16 q=31.0 size=     256kB time=00:00:01.40 bitrate=1498.2kbits/s speed=0.171x    frame=  135 fps= 16 q=31.0 size=     256kB time=00:00:01.50 bitrate=1398.3kbits/s speed=0.173x    frame=  140 fps= 15 q=31.0 size=     256kB time=00:00:01.58 bitrate=1324.7kbits/s speed=0.171x    frame=  146 fps= 15 q=31.0 size=     256kB time=00:00:01.68 bitrate=1246.0kbits/s speed=0.17x    frame=  151 fps= 15 q=31.0 size=     256kB time=00:00:01.76 bitrate=1187.2kbits/s speed=0.17x    frame=  156 fps= 14 q=31.0 size=     256kB time=00:00:01.85 bitrate=1133.8kbits/s speed=0.17x    frame=  162 fps= 14 q=31.0 size=     256kB time=00:00:01.95 bitrate=1075.6kbits/s speed=0.17x    frame=  168 fps= 14 q=31.0 size=     512kB time=00:00:02.05 bitrate=2046.1kbits/s speed=0.17x    frame=  174 fps= 14 q=31.0 size=     512kB time=00:00:02.15 bitrate=1951.0kbits/s speed=0.17x    frame=  180 fps= 14 q=31.0 size=     512kB time=00:00:02.25 bitrate=1864.3kbits/s speed=0.17x    frame=  186 fps= 14 q=31.0 size=     512kB time=00:00:02.35 bitrate=1784.9kbits/s speed=0.171x    frame=  192 fps= 13 q=31.0 size=     512kB time=00:00:02.45 bitrate=1712.1kbits/s speed=0.171x    frame=  198 fps= 13 q=31.0 size=     768kB time=00:00:02.55 bitrate=2467.3kbits/s speed=0.172x    frame=  204 fps= 13 q=31.0 size=     768kB time=00:00:02.65 bitrate=2374.2kbits/s speed=0.173x    frame=  211 fps= 13 q=31.0 size=     768kB time=00:00:02.76 bitrate=2274.1kbits/s speed=0.174x    frame=  218 fps= 13 q=31.0 size=     768kB time=00:00:02.88 bitrate=2182.1kbits/s speed=0.175x    frame=  225 fps= 13 q=31.0 size=     768kB time=00:00:03.00 bitrate=2097.2kbits/s speed=0.177x    frame=  232 fps= 13 q=31.0 size=     768kB time=00:00:03.11 bitrate=2018.7kbits/s speed=0.178x    frame=  239 fps= 13 q=31.0 size=    1024kB time=00:00:03.23 bitrate=2594.5kbits/s speed=0.179x    frame=  247 fps= 13 q=31.0 size=    1024kB time=00:00:03.36 bitrate=2491.7kbits/s speed=0.182x    frame=  254 fps= 13 q=31.0 size=    1024kB time=00:00:03.48 bitrate=2408.3kbits/s speed=0.183x    frame=  261 fps= 13 q=31.0 size=    1024kB time=00:00:03.60 bitrate=2330.2kbits/s speed=0.184x    frame=  269 fps= 13 q=31.0 size=    1024kB time=00:00:03.73 bitrate=2247.0kbits/s speed=0.186x    frame=  277 fps= 13 q=31.0 size=    1024kB time=00:00:03.86 bitrate=2169.5kbits/s speed=0.187x    frame=  285 fps= 13 q=31.0 size=    1024kB time=00:00:04.00 bitrate=2097.2kbits/s speed=0.189x    frame=  293 fps= 13 q=29.0 size=    1024kB time=00:00:04.13 bitrate=2029.6kbits/s speed=0.19x    frame=  301 fps= 14 q=31.0 size=    1280kB time=00:00:04.26 bitrate=2457.7kbits/s speed=0.192x    frame=  309 fps= 14 q=31.0 size=    1280kB time=00:00:04.40 bitrate=2383.2kbits/s speed=0.193x    frame=  316 fps= 14 q=31.0 size=    1280kB time=00:00:04.51 bitrate=2321.6kbits/s speed=0.194x    frame=  324 fps= 14 q=31.0 size=    1280kB time=00:00:04.65 bitrate=2255.1kbits/s speed=0.195x    frame=  333 fps= 14 q=31.0 size=    1280kB time=00:00:04.80 bitrate=2184.6kbits/s speed=0.196x    frame=  341 fps= 14 q=31.0 size=    1280kB time=00:00:04.93 bitrate=2125.5kbits/s speed=0.198x    frame=  349 fps= 14 q=31.0 size=    1280kB time=00:00:05.06 bitrate=2069.6kbits/s speed=0.198x    frame=  356 fps= 14 q=31.0 size=    1280kB time=00:00:05.18 bitrate=2023.0kbits/s speed=0.199x    frame=  364 fps= 14 q=31.0 size=    1536kB time=00:00:05.31 bitrate=2366.7kbits/s speed= 0.2x    frame=  371 fps= 14 q=31.0 size=    1536kB time=00:00:05.43 bitrate=2315.9kbits/s speed= 0.2x    frame=  378 fps= 14 q=31.0 size=    1536kB time=00:00:05.55 bitrate=2267.2kbits/s speed=0.201x    frame=  385 fps= 14 q=31.0 size=    1536kB time=00:00:05.66 bitrate=2220.6kbits/s speed=0.201x    frame=  392 fps= 14 q=31.0 size=    1536kB time=00:00:05.78 bitrate=2175.8kbits/s speed=0.201x    frame=  399 fps= 14 q=31.0 size=    1536kB time=00:00:05.90 bitrate=2132.7kbits/s speed=0.201x    frame=  406 fps= 14 q=31.0 size=    1536kB time=00:00:06.01 bitrate=2091.4kbits/s speed=0.202x    frame=  412 fps= 14 q=31.0 size=    1536kB time=00:00:06.11 bitrate=2057.2kbits/s speed=0.201x    frame=  418 fps= 14 q=31.0 size=    1792kB time=00:00:06.21 bitrate=2361.4kbits/s speed=0.201x    frame=  424 fps= 13 q=31.0 size=    1792kB time=00:00:06.31 bitrate=2324.1kbits/s speed=0.201x    frame=  430 fps= 13 q=31.0 size=    1792kB time=00:00:06.41 bitrate=2287.8kbits/s speed=0.201x    frame=  437 fps= 13 q=31.0 size=    1792kB time=00:00:06.53 bitrate=2247.0kbits/s speed= 0.2x    frame=  444 fps= 13 q=31.0 size=    1792kB time=00:00:06.65 bitrate=2207.6kbits/s speed= 0.2x    frame=  450 fps= 13 q=31.0 size=    1792kB time=00:00:06.75 bitrate=2174.9kbits/s speed= 0.2x    frame=  456 fps= 13 q=31.0 size=    1792kB time=00:00:06.85 bitrate=2143.1kbits/s speed= 0.2x    frame=  462 fps= 13 q=31.0 size=    2048kB time=00:00:06.95 bitrate=2414.0kbits/s speed= 0.2x    frame=  468 fps= 13 q=31.0 size=    2048kB time=00:00:07.05 bitrate=2379.8kbits/s speed=0.199x    frame=  474 fps= 13 q=31.0 size=    2048kB time=00:00:07.15 bitrate=2346.5kbits/s speed=0.199x    frame=  479 fps= 13 q=31.0 size=    2048kB time=00:00:07.23 bitrate=2319.5kbits/s speed=0.198x    frame=  485 fps= 13 q=31.0 size=    2048kB time=00:00:07.33 bitrate=2287.8kbits/s speed=0.198x    frame=  489 fps= 13 q=31.0 size=    2048kB time=00:00:07.40 bitrate=2267.2kbits/s speed=0.198x    frame=  494 fps= 13 q=31.0 size=    2304kB time=00:00:07.48 bitrate=2522.2kbits/s speed=0.197x    frame=  500 fps= 13 q=31.0 size=    2304kB time=00:00:07.58 bitrate=2489.0kbits/s speed=0.197x    frame=  506 fps= 13 q=31.0 size=    2304kB time=00:00:07.68 bitrate=2456.6kbits/s speed=0.197x    frame=  511 fps= 13 q=31.0 size=    2304kB time=00:00:07.76 bitrate=2430.2kbits/s speed=0.196x    frame=  516 fps= 13 q=31.0 size=    2560kB time=00:00:07.85 bitrate=2671.6kbits/s speed=0.196x    frame=  522 fps= 13 q=31.0 size=    2560kB time=00:00:07.95 bitrate=2638.0kbits/s speed=0.195x    frame=  528 fps= 13 q=31.0 size=    2560kB time=00:00:08.05 bitrate=2605.2kbits/s speed=0.195x    frame=  533 fps= 13 q=31.0 size=    2560kB time=00:00:08.13 bitrate=2578.5kbits/s speed=0.194x    frame=  539 fps= 13 q=31.0 size=    2560kB time=00:00:08.23 bitrate=2547.2kbits/s speed=0.194x    frame=  543 fps= 13 q=29.0 size=    2816kB time=00:00:08.30 bitrate=2779.4kbits/s speed=0.193x    frame=  550 fps= 13 q=31.0 size=    2816kB time=00:00:08.41 bitrate=2740.9kbits/s speed=0.193x    frame=  554 fps= 13 q=31.0 size=    2816kB time=00:00:08.48 bitrate=2719.3kbits/s speed=0.193x    frame=  559 fps= 13 q=31.0 size=    2816kB time=00:00:08.56 bitrate=2692.9kbits/s speed=0.192x    frame=  564 fps= 12 q=31.0 size=    3072kB time=00:00:08.65 bitrate=2909.4kbits/s speed=0.191x    frame=  569 fps= 12 q=31.0 size=    3072kB time=00:00:08.73 bitrate=2881.6kbits/s speed=0.191x    frame=  574 fps= 12 q=31.0 size=    3072kB time=00:00:08.81 bitrate=2854.4kbits/s speed=0.19x    frame=  579 fps= 12 q=31.0 size=    3072kB time=00:00:08.90 bitrate=2827.6kbits/s speed=0.19x    frame=  584 fps= 12 q=31.0 size=    3072kB time=00:00:08.98 bitrate=2801.4kbits/s speed=0.19x    frame=  589 fps= 12 q=31.0 size=    3072kB time=00:00:09.06 bitrate=2775.7kbits/s speed=0.189x    frame=  594 fps= 12 q=31.0 size=    3328kB time=00:00:09.15 bitrate=2979.6kbits/s speed=0.189x    frame=  599 fps= 12 q=31.0 size=    3328kB time=00:00:09.23 bitrate=2952.7kbits/s speed=0.189x    frame=  604 fps= 12 q=31.0 size=    3328kB time=00:00:09.31 bitrate=2926.3kbits/s speed=0.188x    frame=  609 fps= 12 q=31.0 size=    3328kB time=00:00:09.40 bitrate=2900.3kbits/s speed=0.188x    frame=  614 fps= 12 q=31.0 size=    3584kB time=00:00:09.48 bitrate=3096.0kbits/s speed=0.187x    frame=  619 fps= 12 q=31.0 size=    3584kB time=00:00:09.56 bitrate=3069.0kbits/s speed=0.187x    frame=  624 fps= 12 q=31.0 size=    3584kB time=00:00:09.65 bitrate=3042.5kbits/s speed=0.187x    frame=  630 fps= 12 q=31.0 size=    3584kB time=00:00:09.75 bitrate=3011.3kbits/s speed=0.186x    frame=  634 fps= 12 q=31.0 size=    3840kB time=00:00:09.81 bitrate=3204.5kbits/s speed=0.186x    frame=  639 fps= 12 q=31.0 size=    3840kB time=00:00:09.90 bitrate=3177.5kbits/s speed=0.186x    frame=  644 fps= 12 q=31.0 size=    3840kB time=00:00:09.98 bitrate=3151.0kbits/s speed=0.185x    frame=  650 fps= 12 q=31.0 size=    3840kB time=00:00:10.08 bitrate=3119.7kbits/s speed=0.185x    frame=  656 fps= 12 q=31.0 size=    4096kB time=00:00:10.18 bitrate=3295.1kbits/s speed=0.185x    frame=  661 fps= 12 q=31.0 size=    4096kB time=00:00:10.26 bitrate=3268.3kbits/s speed=0.185x    frame=  666 fps= 12 q=31.0 size=    4096kB time=00:00:10.35 bitrate=3242.0kbits/s speed=0.184x    frame=  671 fps= 12 q=31.0 size=    4096kB time=00:00:10.43 bitrate=3216.1kbits/s speed=0.184x    frame=  676 fps= 12 q=31.0 size=    4096kB time=00:00:10.51 bitrate=3190.6kbits/s speed=0.184x    frame=  681 fps= 12 q=31.0 size=    4352kB time=00:00:10.60 bitrate=3363.4kbits/s speed=0.184x    frame=  686 fps= 12 q=31.0 size=    4352kB time=00:00:10.68 bitrate=3337.1kbits/s speed=0.183x    frame=  692 fps= 12 q=31.0 size=    4352kB time=00:00:10.78 bitrate=3306.2kbits/s speed=0.183x    frame=  698 fps= 12 q=31.0 size=    4352kB time=00:00:10.88 bitrate=3275.8kbits/s speed=0.183x    frame=  703 fps= 12 q=31.0 size=    4352kB time=00:00:10.96 bitrate=3250.9kbits/s speed=0.183x    frame=  708 fps= 12 q=31.0 size=    4608kB time=00:00:11.05 bitrate=3416.2kbits/s speed=0.183x    frame=  713 fps= 12 q=31.0 size=    4608kB time=00:00:11.13 bitrate=3390.6kbits/s speed=0.182x    frame=  718 fps= 12 q=31.0 size=    4608kB time=00:00:11.21 bitrate=3365.4kbits/s speed=0.182x    frame=  723 fps= 12 q=31.0 size=    4608kB time=00:00:11.30 bitrate=3340.6kbits/s speed=0.182x    frame=  728 fps= 12 q=31.0 size=    4608kB time=00:00:11.38 bitrate=3316.2kbits/s speed=0.182x    frame=  733 fps= 12 q=31.0 size=    4608kB time=00:00:11.46 bitrate=3292.1kbits/s speed=0.182x    frame=  738 fps= 12 q=31.0 size=    4864kB time=00:00:11.55 bitrate=3449.9kbits/s speed=0.182x    frame=  743 fps= 12 q=31.0 size=    4864kB time=00:00:11.63 bitrate=3425.2kbits/s speed=0.182x    frame=  748 fps= 12 q=31.0 size=    4864kB time=00:00:11.71 bitrate=3400.8kbits/s speed=0.181x    frame=  753 fps= 12 q=31.0 size=    4864kB time=00:00:11.80 bitrate=3376.8kbits/s speed=0.181x    frame=  758 fps= 12 q=31.0 size=    4864kB time=00:00:11.88 bitrate=3353.1kbits/s speed=0.181x    frame=  763 fps= 12 q=31.0 size=    5120kB time=00:00:11.96 bitrate=3505.0kbits/s speed=0.181x    frame=  768 fps= 12 q=31.0 size=    5120kB time=00:00:12.05 bitrate=3480.8kbits/s speed=0.181x    frame=  774 fps= 12 q=31.0 size=    5120kB time=00:00:12.15 bitrate=3452.1kbits/s speed=0.181x    frame=  780 fps= 11 q=31.0 size=    5120kB time=00:00:12.25 bitrate=3423.9kbits/s speed=0.181x    frame=  786 fps= 11 q=31.0 size=    5120kB time=00:00:12.35 bitrate=3396.2kbits/s speed=0.18x    frame=  791 fps= 11 q=31.0 size=    5376kB time=00:00:12.43 bitrate=3542.1kbits/s speed=0.18x    frame=  797 fps= 11 q=31.0 size=    5376kB time=00:00:12.53 bitrate=3513.9kbits/s speed=0.18x    frame=  803 fps= 11 q=31.0 size=    5376kB time=00:00:12.63 bitrate=3486.0kbits/s speed=0.18x    frame=  809 fps= 11 q=31.0 size=    5376kB time=00:00:12.73 bitrate=3458.7kbits/s speed=0.18x    frame=  815 fps= 11 q=31.0 size=    5632kB time=00:00:12.83 bitrate=3595.1kbits/s speed=0.18x    frame=  821 fps= 11 q=31.0 size=    5632kB time=00:00:12.93 bitrate=3567.3kbits/s speed=0.18x    frame=  826 fps= 11 q=31.0 size=    5632kB time=00:00:13.01 bitrate=3544.5kbits/s speed=0.18x    frame=  831 fps= 11 q=31.0 size=    5632kB time=00:00:13.10 bitrate=3521.9kbits/s speed=0.18x    frame=  837 fps= 11 q=31.0 size=    5632kB time=00:00:13.20 bitrate=3495.3kbits/s speed=0.18x    frame=  843 fps= 11 q=31.0 size=    5632kB time=00:00:13.30 bitrate=3469.0kbits/s speed=0.18x    frame=  849 fps= 11 q=31.0 size=    5632kB time=00:00:13.40 bitrate=3443.1kbits/s speed=0.18x    frame=  855 fps= 11 q=31.0 size=    5888kB time=00:00:13.50 bitrate=3572.9kbits/s speed=0.18x    frame=  861 fps= 11 q=31.0 size=    5888kB time=00:00:13.60 bitrate=3546.7kbits/s speed=0.18x    frame=  866 fps= 11 q=31.0 size=    5888kB time=00:00:13.68 bitrate=3525.1kbits/s speed=0.18x    frame=  872 fps= 11 q=31.0 size=    5888kB time=00:00:13.78 bitrate=3499.5kbits/s speed=0.179x    frame=  878 fps= 11 q=31.0 size=    5888kB time=00:00:13.88 bitrate=3474.3kbits/s speed=0.179x    frame=  884 fps= 11 q=31.0 size=    5888kB time=00:00:13.98 bitrate=3449.4kbits/s speed=0.179x    frame=  890 fps= 11 q=31.0 size=    6144kB time=00:00:14.08 bitrate=3573.9kbits/s speed=0.179x    frame=  895 fps= 11 q=31.0 size=    6144kB time=00:00:14.16 bitrate=3552.8kbits/s speed=0.179x    frame=  901 fps= 11 q=31.0 size=    6144kB time=00:00:14.26 bitrate=3527.9kbits/s speed=0.179x    frame=  907 fps= 11 q=31.0 size=    6144kB time=00:00:14.36 bitrate=3503.4kbits/s speed=0.179x    frame=  912 fps= 11 q=31.0 size=    6144kB time=00:00:14.45 bitrate=3483.2kbits/s speed=0.179x    frame=  918 fps= 11 q=31.0 size=    6144kB time=00:00:14.55 bitrate=3459.2kbits/s speed=0.179x    frame=  924 fps= 11 q=31.0 size=    6144kB time=00:00:14.65 bitrate=3435.6kbits/s speed=0.179x    frame=  930 fps= 11 q=31.0 size=    6400kB time=00:00:14.75 bitrate=3554.5kbits/s speed=0.179x    frame=  934 fps= 11 q=31.0 size=    6400kB time=00:00:14.81 bitrate=3538.5kbits/s speed=0.179x    frame=  940 fps= 11 q=31.0 size=    6400kB time=00:00:14.91 bitrate=3514.8kbits/s speed=0.179x    frame=  946 fps= 11 q=31.0 size=    6400kB time=00:00:15.01 bitrate=3491.4kbits/s speed=0.179x    frame=  952 fps= 11 q=31.0 size=    6400kB time=00:00:15.11 bitrate=3468.3kbits/s speed=0.179x    frame=  959 fps= 11 q=31.0 size=    6400kB time=00:00:15.23 bitrate=3441.7kbits/s speed=0.179x    frame=  964 fps= 11 q=31.0 size=    6656kB time=00:00:15.31 bitrate=3559.9kbits/s speed=0.179x    frame=  970 fps= 11 q=31.0 size=    6656kB time=00:00:15.41 bitrate=3536.8kbits/s speed=0.179x    frame=  975 fps= 11 q=31.0 size=    6656kB time=00:00:15.50 bitrate=3517.8kbits/s speed=0.179x    frame=  980 fps= 11 q=31.0 size=    6656kB time=00:00:15.58 bitrate=3499.0kbits/s speed=0.179x    frame=  984 fps= 11 q=31.0 size=    6656kB time=00:00:15.65 bitrate=3484.1kbits/s speed=0.178x    frame=  990 fps= 11 q=31.0 size=    6656kB time=00:00:15.75 bitrate=3462.0kbits/s speed=0.178x    frame=  996 fps= 11 q=31.0 size=    6912kB time=00:00:15.85 bitrate=3572.4kbits/s speed=0.178x    frame= 1002 fps= 11 q=31.0 size=    6912kB time=00:00:15.95 bitrate=3550.0kbits/s speed=0.178x    frame= 1008 fps= 11 q=31.0 size=    6912kB time=00:00:16.05 bitrate=3527.9kbits/s speed=0.178x    frame= 1014 fps= 11 q=31.0 size=    6912kB time=00:00:16.15 bitrate=3506.1kbits/s speed=0.178x    frame= 1020 fps= 11 q=31.0 size=    6912kB time=00:00:16.25 bitrate=3484.5kbits/s speed=0.178x    frame= 1026 fps= 11 q=31.0 size=    6912kB time=00:00:16.35 bitrate=3463.2kbits/s speed=0.178x    frame= 1032 fps= 11 q=31.0 size=    7168kB time=00:00:16.45 bitrate=3569.6kbits/s speed=0.178x    frame= 1038 fps= 11 q=31.0 size=    7168kB time=00:00:16.55 bitrate=3548.1kbits/s speed=0.178x    frame= 1044 fps= 11 q=31.0 size=    7168kB time=00:00:16.65 bitrate=3526.8kbits/s speed=0.178x    frame= 1050 fps= 11 q=31.0 size=    7168kB time=00:00:16.75 bitrate=3505.7kbits/s speed=0.178x    frame= 1056 fps= 11 q=31.0 size=    7168kB time=00:00:16.85 bitrate=3484.9kbits/s speed=0.178x    frame= 1062 fps= 11 q=31.0 size=    7424kB time=00:00:16.95 bitrate=3588.1kbits/s speed=0.178x    frame= 1068 fps= 11 q=31.0 size=    7424kB time=00:00:17.05 bitrate=3567.0kbits/s speed=0.178x    frame= 1075 fps= 11 q=31.0 size=    7424kB time=00:00:17.16 bitrate=3542.8kbits/s speed=0.178x    frame= 1079 fps= 11 q=31.0 size=    7424kB time=00:00:17.23 bitrate=3529.1kbits/s speed=0.178x    frame= 1082 fps= 11 q=31.0 size=    7424kB time=00:00:17.28 bitrate=3518.9kbits/s speed=0.177x    frame= 1086 fps= 11 q=31.0 size=    7424kB time=00:00:17.35 bitrate=3505.3kbits/s speed=0.177x    frame= 1091 fps= 11 q=31.0 size=    7424kB time=00:00:17.43 bitrate=3488.6kbits/s speed=0.177x    frame= 1097 fps= 11 q=31.0 size=    7680kB time=00:00:17.53 bitrate=3588.3kbits/s speed=0.177x    frame= 1102 fps= 11 q=31.0 size=    7680kB time=00:00:17.61 bitrate=3571.3kbits/s speed=0.177x    frame= 1106 fps= 11 q=31.0 size=    7680kB time=00:00:17.68 bitrate=3557.9kbits/s speed=0.176x    frame= 1110 fps= 11 q=31.0 size=    7680kB time=00:00:17.75 bitrate=3544.5kbits/s speed=0.176x    frame= 1116 fps= 11 q=31.0 size=    7680kB time=00:00:17.85 bitrate=3524.6kbits/s speed=0.176x    frame= 1121 fps= 11 q=31.0 size=    7680kB time=00:00:17.93 bitrate=3508.3kbits/s speed=0.176x    frame= 1126 fps= 11 q=31.0 size=    7936kB time=00:00:18.01 bitrate=3608.4kbits/s speed=0.176x    frame= 1131 fps= 11 q=31.0 size=    7936kB time=00:00:18.10 bitrate=3591.8kbits/s speed=0.176x    frame= 1136 fps= 11 q=31.0 size=    8192kB time=00:00:18.18 bitrate=3690.7kbits/s speed=0.176x    frame= 1141 fps= 11 q=31.0 size=    8192kB time=00:00:18.26 bitrate=3673.9kbits/s speed=0.176x    frame= 1146 fps= 11 q=31.0 size=    8192kB time=00:00:18.35 bitrate=3657.2kbits/s speed=0.176x    frame= 1151 fps= 11 q=31.0 size=    8448kB time=00:00:18.43 bitrate=3754.4kbits/s speed=0.175x    frame= 1157 fps= 11 q=31.0 size=    8448kB time=00:00:18.53 bitrate=3734.1kbits/s speed=0.175x    frame= 1162 fps= 11 q=31.0 size=    8448kB time=00:00:18.61 bitrate=3717.4kbits/s speed=0.175x    frame= 1167 fps= 11 q=31.0 size=    8704kB time=00:00:18.70 bitrate=3813.0kbits/s speed=0.175x    frame= 1173 fps= 11 q=31.0 size=    8704kB time=00:00:18.80 bitrate=3792.7kbits/s speed=0.175x    frame= 1178 fps= 11 q=31.0 size=    8704kB time=00:00:18.88 bitrate=3776.0kbits/s speed=0.175x    frame= 1184 fps= 11 q=31.0 size=    8704kB time=00:00:18.98 bitrate=3756.1kbits/s speed=0.175x    frame= 1190 fps= 11 q=31.0 size=    8960kB time=00:00:19.08 bitrate=3846.3kbits/s speed=0.175x    frame= 1196 fps= 11 q=31.0 size=    8960kB time=00:00:19.18 bitrate=3826.3kbits/s speed=0.175x    frame= 1202 fps= 11 q=31.0 size=    8960kB time=00:00:19.28 bitrate=3806.4kbits/s speed=0.175x    frame= 1208 fps= 11 q=31.0 size=    8960kB time=00:00:19.38 bitrate=3786.8kbits/s speed=0.175x    frame= 1214 fps= 11 q=31.0 size=    9216kB time=00:00:19.48 bitrate=3875.0kbits/s speed=0.175x    frame= 1220 fps= 11 q=31.0 size=    9216kB time=00:00:19.58 bitrate=3855.2kbits/s speed=0.175x    frame= 1226 fps= 11 q=31.0 size=    9216kB time=00:00:19.68 bitrate=3835.6kbits/s speed=0.176x    frame= 1232 fps= 11 q=31.0 size=    9216kB time=00:00:19.78 bitrate=3816.2kbits/s speed=0.176x    frame= 1238 fps= 11 q=31.0 size=    9472kB time=00:00:19.88 bitrate=3902.5kbits/s speed=0.176x    frame= 1244 fps= 11 q=31.0 size=    9472kB time=00:00:19.98 bitrate=3883.0kbits/s speed=0.176x    frame= 1250 fps= 11 q=31.0 size=    9472kB time=00:00:20.08 bitrate=3863.6kbits/s speed=0.176x    frame= 1256 fps= 11 q=31.0 size=    9472kB time=00:00:20.18 bitrate=3844.5kbits/s speed=0.176x    frame= 1262 fps= 11 q=31.0 size=    9472kB time=00:00:20.28 bitrate=3825.5kbits/s speed=0.176x    frame= 1268 fps= 11 q=31.0 size=    9728kB time=00:00:20.38 bitrate=3909.7kbits/s speed=0.176x    frame= 1275 fps= 11 q=31.0 size=    9728kB time=00:00:20.50 bitrate=3887.4kbits/s speed=0.176x    frame= 1282 fps= 11 q=31.0 size=    9728kB time=00:00:20.61 bitrate=3865.4kbits/s speed=0.176x    frame= 1288 fps= 11 q=31.0 size=    9728kB time=00:00:20.71 bitrate=3846.8kbits/s speed=0.176x    frame= 1294 fps= 11 q=31.0 size=    9728kB time=00:00:20.81 bitrate=3828.3kbits/s speed=0.177x    frame= 1301 fps= 11 q=31.0 size=    9984kB time=00:00:20.93 bitrate=3907.1kbits/s speed=0.177x    frame= 1308 fps= 11 q=31.0 size=    9984kB time=00:00:21.05 bitrate=3885.5kbits/s speed=0.177x    frame= 1314 fps= 11 q=31.0 size=    9984kB time=00:00:21.15 bitrate=3867.1kbits/s speed=0.177x    frame= 1321 fps= 11 q=31.0 size=    9984kB time=00:00:21.26 bitrate=3845.9kbits/s speed=0.177x    frame= 1326 fps= 11 q=31.0 size=    9984kB time=00:00:21.35 bitrate=3830.9kbits/s speed=0.177x    frame= 1334 fps= 11 q=31.0 size=   10240kB time=00:00:21.48 bitrate=3904.7kbits/s speed=0.177x    frame= 1340 fps= 11 q=31.0 size=   10240kB time=00:00:21.58 bitrate=3886.6kbits/s speed=0.177x    frame= 1348 fps= 11 q=31.0 size=   10240kB time=00:00:21.71 bitrate=3862.8kbits/s speed=0.178x    frame= 1355 fps= 11 q=31.0 size=   10240kB time=00:00:21.83 bitrate=3842.1kbits/s speed=0.178x    frame= 1362 fps= 11 q=31.0 size=   10240kB time=00:00:21.95 bitrate=3821.7kbits/s speed=0.178x    frame= 1369 fps= 11 q=31.0 size=   10496kB time=00:00:22.06 bitrate=3896.5kbits/s speed=0.178x    frame= 1375 fps= 11 q=31.0 size=   10496kB time=00:00:22.16 bitrate=3878.9kbits/s speed=0.178x    frame= 1382 fps= 11 q=31.0 size=   10496kB time=00:00:22.28 bitrate=3858.6kbits/s speed=0.178x    frame= 1389 fps= 11 q=31.0 size=   10496kB time=00:00:22.40 bitrate=3838.5kbits/s speed=0.178x    frame= 1394 fps= 11 q=31.0 size=   10496kB time=00:00:22.48 bitrate=3824.3kbits/s speed=0.178x    frame= 1400 fps= 11 q=31.0 size=   10496kB time=00:00:22.58 bitrate=3807.4kbits/s speed=0.178x    frame= 1406 fps= 11 q=31.0 size=   10752kB time=00:00:22.68 bitrate=3883.0kbits/s speed=0.178x    frame= 1412 fps= 11 q=31.0 size=   10752kB time=00:00:22.78 bitrate=3866.0kbits/s speed=0.178x    frame= 1418 fps= 11 q=31.0 size=   10752kB time=00:00:22.88 bitrate=3849.1kbits/s speed=0.178x    frame= 1424 fps= 11 q=31.0 size=   10752kB time=00:00:22.98 bitrate=3832.4kbits/s speed=0.178x    frame= 1430 fps= 11 q=31.0 size=   10752kB time=00:00:23.08 bitrate=3815.8kbits/s speed=0.178x    frame= 1436 fps= 11 q=31.0 size=   11008kB time=00:00:23.18 bitrate=3889.8kbits/s speed=0.178x    frame= 1442 fps= 11 q=31.0 size=   11008kB time=00:00:23.28 bitrate=3873.1kbits/s speed=0.178x    frame= 1448 fps= 11 q=31.0 size=   11008kB time=00:00:23.38 bitrate=3856.5kbits/s speed=0.179x    frame= 1454 fps= 11 q=31.0 size=   11008kB time=00:00:23.48 bitrate=3840.1kbits/s speed=0.179x    frame= 1460 fps= 11 q=31.0 size=   11008kB time=00:00:23.58 bitrate=3823.8kbits/s speed=0.179x    frame= 1466 fps= 11 q=31.0 size=   11264kB time=00:00:23.68 bitrate=3896.2kbits/s speed=0.179x    frame= 1472 fps= 11 q=31.0 size=   11264kB time=00:00:23.78 bitrate=3879.8kbits/s speed=0.179x    frame= 1479 fps= 11 q=31.0 size=   11264kB time=00:00:23.90 bitrate=3860.9kbits/s speed=0.179x    frame= 1485 fps= 11 q=31.0 size=   11264kB time=00:00:24.00 bitrate=3844.8kbits/s speed=0.179x    frame= 1491 fps= 11 q=31.0 size=   11264kB time=00:00:24.10 bitrate=3828.8kbits/s speed=0.179x    frame= 1497 fps= 11 q=31.0 size=   11264kB time=00:00:24.20 bitrate=3813.0kbits/s speed=0.179x    frame= 1503 fps= 11 q=31.0 size=   11520kB time=00:00:24.30 bitrate=3883.6kbits/s speed=0.179x    frame= 1508 fps= 11 q=31.0 size=   11520kB time=00:00:24.38 bitrate=3870.3kbits/s speed=0.178x    frame= 1514 fps= 11 q=31.0 size=   11520kB time=00:00:24.48 bitrate=3854.5kbits/s speed=0.178x    frame= 1520 fps= 11 q=31.0 size=   11520kB time=00:00:24.58 bitrate=3838.9kbits/s speed=0.178x    frame= 1526 fps= 11 q=31.0 size=   11520kB time=00:00:24.68 bitrate=3823.3kbits/s speed=0.178x    frame= 1532 fps= 11 q=31.0 size=   11776kB time=00:00:24.78 bitrate=3892.5kbits/s speed=0.178x    frame= 1536 fps= 11 q=31.0 size=   11776kB time=00:00:24.85 bitrate=3882.1kbits/s speed=0.178x    frame= 1541 fps= 11 q=31.0 size=   11776kB time=00:00:24.93 bitrate=3869.1kbits/s speed=0.178x    frame= 1548 fps= 11 q=31.0 size=   12032kB time=00:00:25.05 bitrate=3934.8kbits/s speed=0.178x    frame= 1552 fps= 11 q=31.0 size=   12032kB time=00:00:25.11 bitrate=3924.3kbits/s speed=0.178x    frame= 1556 fps= 11 q=31.0 size=   12032kB time=00:00:25.18 bitrate=3913.9kbits/s speed=0.178x    frame= 1561 fps= 11 q=31.0 size=   12032kB time=00:00:25.26 bitrate=3901.0kbits/s speed=0.178x    frame= 1567 fps= 11 q=31.0 size=   12288kB time=00:00:25.36 bitrate=3968.3kbits/s speed=0.177x    frame= 1572 fps= 11 q=31.0 size=   12288kB time=00:00:25.45 bitrate=3955.3kbits/s speed=0.177x    frame= 1577 fps= 11 q=31.0 size=   12288kB time=00:00:25.53 bitrate=3942.4kbits/s speed=0.177x    frame= 1582 fps= 11 q=31.0 size=   12288kB time=00:00:25.61 bitrate=3929.6kbits/s speed=0.177x    frame= 1587 fps= 11 q=31.0 size=   12544kB time=00:00:25.70 bitrate=3998.5kbits/s speed=0.177x    frame= 1592 fps= 11 q=31.0 size=   12544kB time=00:00:25.78 bitrate=3985.5kbits/s speed=0.177x    frame= 1597 fps= 11 q=31.0 size=   12544kB time=00:00:25.86 bitrate=3972.7kbits/s speed=0.177x    frame= 1603 fps= 11 q=31.0 size=   12544kB time=00:00:25.96 bitrate=3957.4kbits/s speed=0.177x    frame= 1608 fps= 11 q=31.0 size=   12800kB time=00:00:26.05 bitrate=4025.2kbits/s speed=0.177x    frame= 1613 fps= 11 q=31.0 size=   12800kB time=00:00:26.13 bitrate=4012.4kbits/s speed=0.177x    frame= 1619 fps= 11 q=31.0 size=   12800kB time=00:00:26.23 bitrate=3997.1kbits/s speed=0.177x    frame= 1623 fps= 11 q=31.0 size=   12800kB time=00:00:26.30 bitrate=3987.0kbits/s speed=0.177x    frame= 1628 fps= 11 q=31.0 size=   13056kB time=00:00:26.38 bitrate=4053.9kbits/s speed=0.176x    frame= 1633 fps= 11 q=31.0 size=   13056kB time=00:00:26.46 bitrate=4041.1kbits/s speed=0.176x    frame= 1639 fps= 11 q=31.0 size=   13056kB time=00:00:26.56 bitrate=4025.9kbits/s speed=0.176x    frame= 1645 fps= 11 q=31.0 size=   13312kB time=00:00:26.66 bitrate=4089.5kbits/s speed=0.176x    frame= 1649 fps= 11 q=31.0 size=   13312kB time=00:00:26.73 bitrate=4079.3kbits/s speed=0.176x    frame= 1655 fps= 11 q=31.0 size=   13312kB time=00:00:26.83 bitrate=4064.1kbits/s speed=0.176x    frame= 1660 fps= 11 q=31.0 size=   13312kB time=00:00:26.91 bitrate=4051.5kbits/s speed=0.176x    frame= 1666 fps= 11 q=31.0 size=   13568kB time=00:00:27.01 bitrate=4114.1kbits/s speed=0.176x    frame= 1670 fps= 11 q=31.0 size=   13568kB time=00:00:27.08 bitrate=4104.0kbits/s speed=0.176x    frame= 1674 fps= 11 q=31.0 size=   13568kB time=00:00:27.15 bitrate=4093.9kbits/s speed=0.176x    frame= 1679 fps= 11 q=31.0 size=   13568kB time=00:00:27.23 bitrate=4081.4kbits/s speed=0.176x    frame= 1684 fps= 11 q=31.0 size=   13824kB time=00:00:27.31 bitrate=4145.7kbits/s speed=0.176x    frame= 1690 fps= 11 q=31.0 size=   13824kB time=00:00:27.41 bitrate=4130.6kbits/s speed=0.176x    frame= 1695 fps= 11 q=31.0 size=   13824kB time=00:00:27.50 bitrate=4118.0kbits/s speed=0.176x    frame= 1699 fps= 11 q=31.0 size=   13824kB time=00:00:27.56 bitrate=4108.1kbits/s speed=0.175x    frame= 1704 fps= 11 q=31.0 size=   14080kB time=00:00:27.65 bitrate=4171.6kbits/s speed=0.175x    frame= 1709 fps= 11 q=31.0 size=   14080kB time=00:00:27.73 bitrate=4159.0kbits/s speed=0.175x    frame= 1714 fps= 11 q=31.0 size=   14080kB time=00:00:27.81 bitrate=4146.6kbits/s speed=0.175x    frame= 1720 fps= 11 q=31.0 size=   14080kB time=00:00:27.91 bitrate=4131.7kbits/s speed=0.175x    frame= 1726 fps= 11 q=31.0 size=   14336kB time=00:00:28.01 bitrate=4191.8kbits/s speed=0.175x    frame= 1732 fps= 11 q=31.0 size=   14336kB time=00:00:28.11 bitrate=4176.9kbits/s speed=0.175x    frame= 1738 fps= 11 q=31.0 size=   14592kB time=00:00:28.21 bitrate=4236.4kbits/s speed=0.175x    frame= 1744 fps= 11 q=31.0 size=   14592kB time=00:00:28.31 bitrate=4221.5kbits/s speed=0.175x    frame= 1750 fps= 11 q=31.0 size=   14592kB time=00:00:28.41 bitrate=4206.6kbits/s speed=0.175x    frame= 1756 fps= 11 q=31.0 size=   14848kB time=00:00:28.51 bitrate=4265.4kbits/s speed=0.175x    frame= 1762 fps= 11 q=31.0 size=   14848kB time=00:00:28.61 bitrate=4250.5kbits/s speed=0.176x    frame= 1768 fps= 11 q=31.0 size=   15104kB time=00:00:28.71 bitrate=4308.7kbits/s speed=0.176x    frame= 1775 fps= 11 q=31.0 size=   15104kB time=00:00:28.83 bitrate=4291.3kbits/s speed=0.176x    frame= 1781 fps= 11 q=31.0 size=   15104kB time=00:00:28.93 bitrate=4276.5kbits/s speed=0.176x    frame= 1787 fps= 11 q=31.0 size=   15360kB time=00:00:29.03 bitrate=4334.0kbits/s speed=0.176x    frame= 1793 fps= 11 q=29.0 size=   15360kB time=00:00:29.13 bitrate=4319.1kbits/s speed=0.176x    frame= 1800 fps= 11 q=31.0 size=   15360kB time=00:00:29.25 bitrate=4301.9kbits/s speed=0.176x    frame= 1806 fps= 11 q=31.0 size=   15616kB time=00:00:29.35 bitrate=4358.6kbits/s speed=0.176x    frame= 1812 fps= 11 q=31.0 size=   15616kB time=00:00:29.45 bitrate=4343.8kbits/s speed=0.176x    frame= 1818 fps= 11 q=31.0 size=   15616kB time=00:00:29.55 bitrate=4329.1kbits/s speed=0.176x    frame= 1824 fps= 11 q=31.0 size=   15872kB time=00:00:29.65 bitrate=4385.3kbits/s speed=0.176x    frame= 1830 fps= 11 q=31.0 size=   15872kB time=00:00:29.75 bitrate=4370.5kbits/s speed=0.176x    frame= 1836 fps= 11 q=31.0 size=   15872kB time=00:00:29.85 bitrate=4355.9kbits/s speed=0.176x    frame= 1842 fps= 11 q=31.0 size=   16128kB time=00:00:29.95 bitrate=4411.4kbits/s speed=0.176x    frame= 1848 fps= 11 q=31.0 size=   16128kB time=00:00:30.05 bitrate=4396.7kbits/s speed=0.176x    frame= 1854 fps= 11 q=31.0 size=   16128kB time=00:00:30.15 bitrate=4382.1kbits/s speed=0.176x    frame= 1860 fps= 11 q=31.0 size=   16128kB time=00:00:30.25 bitrate=4367.6kbits/s speed=0.176x    frame= 1866 fps= 11 q=31.0 size=   16384kB time=00:00:30.35 bitrate=4422.3kbits/s speed=0.176x    frame= 1872 fps= 11 q=31.0 size=   16384kB time=00:00:30.45 bitrate=4407.8kbits/s speed=0.176x    frame= 1878 fps= 11 q=31.0 size=   16384kB time=00:00:30.55 bitrate=4393.4kbits/s speed=0.176x    frame= 1884 fps= 11 q=31.0 size=   16640kB time=00:00:30.65 bitrate=4447.5kbits/s speed=0.176x    frame= 1890 fps= 11 q=31.0 size=   16640kB time=00:00:30.75 bitrate=4433.0kbits/s speed=0.176x    frame= 1896 fps= 11 q=31.0 size=   16640kB time=00:00:30.85 bitrate=4418.6kbits/s speed=0.176x    frame= 1902 fps= 11 q=31.0 size=   16640kB time=00:00:30.95 bitrate=4404.4kbits/s speed=0.177x    frame= 1909 fps= 11 q=31.0 size=   16896kB time=00:00:31.06 bitrate=4455.3kbits/s speed=0.177x    frame= 1915 fps= 11 q=31.0 size=   16896kB time=00:00:31.16 bitrate=4441.0kbits/s speed=0.177x    frame= 1922 fps= 11 q=31.0 size=   16896kB time=00:00:31.28 bitrate=4424.5kbits/s speed=0.177x    frame= 1928 fps= 11 q=31.0 size=   16896kB time=00:00:31.38 bitrate=4410.4kbits/s speed=0.177x    frame= 1934 fps= 11 q=31.0 size=   17152kB time=00:00:31.48 bitrate=4463.0kbits/s speed=0.177x    frame= 1940 fps= 11 q=31.0 size=   17152kB time=00:00:31.58 bitrate=4448.8kbits/s speed=0.177x    frame= 1946 fps= 11 q=31.0 size=   17152kB time=00:00:31.68 bitrate=4434.8kbits/s speed=0.177x    frame= 1952 fps= 11 q=31.0 size=   17152kB time=00:00:31.78 bitrate=4420.8kbits/s speed=0.177x    frame= 1959 fps= 11 q=31.0 size=   17408kB time=00:00:31.90 bitrate=4470.4kbits/s speed=0.177x    frame= 1965 fps= 11 q=31.0 size=   17408kB time=00:00:32.00 bitrate=4456.5kbits/s speed=0.177x    frame= 1972 fps= 11 q=31.0 size=   17408kB time=00:00:32.11 bitrate=4440.3kbits/s speed=0.177x    frame= 1978 fps= 11 q=31.0 size=   17664kB time=00:00:32.21 bitrate=4491.6kbits/s speed=0.177x    frame= 1985 fps= 11 q=31.0 size=   17664kB time=00:00:32.33 bitrate=4475.4kbits/s speed=0.177x    frame= 1991 fps= 11 q=31.0 size=   17664kB time=00:00:32.43 bitrate=4461.6kbits/s speed=0.177x    frame= 1997 fps= 11 q=31.0 size=   17664kB time=00:00:32.53 bitrate=4447.9kbits/s speed=0.177x    frame= 2003 fps= 11 q=31.0 size=   17920kB time=00:00:32.63 bitrate=4498.5kbits/s speed=0.177x    frame= 2009 fps= 11 q=31.0 size=   17920kB time=00:00:32.73 bitrate=4484.7kbits/s speed=0.177x    frame= 2015 fps= 11 q=31.0 size=   17920kB time=00:00:32.83 bitrate=4471.1kbits/s speed=0.177x    frame= 2021 fps= 11 q=31.0 size=   17920kB time=00:00:32.93 bitrate=4457.5kbits/s speed=0.178x    frame= 2028 fps= 11 q=31.0 size=   18176kB time=00:00:33.05 bitrate=4505.2kbits/s speed=0.178x    frame= 2035 fps= 11 q=31.0 size=   18176kB time=00:00:33.16 bitrate=4489.4kbits/s speed=0.178x    frame= 2043 fps= 11 q=29.0 size=   18176kB time=00:00:33.30 bitrate=4471.4kbits/s speed=0.178x    frame= 2049 fps= 11 q=31.0 size=   18432kB time=00:00:33.40 bitrate=4520.8kbits/s speed=0.178x    frame= 2055 fps= 11 q=31.0 size=   18432kB time=00:00:33.50 bitrate=4507.3kbits/s speed=0.178x    frame= 2061 fps= 11 q=31.0 size=   18432kB time=00:00:33.60 bitrate=4493.9kbits/s speed=0.178x    frame= 2068 fps= 11 q=31.0 size=   18432kB time=00:00:33.71 bitrate=4478.4kbits/s speed=0.178x    frame= 2073 fps= 11 q=31.0 size=   18688kB time=00:00:33.80 bitrate=4529.4kbits/s speed=0.178x    frame= 2079 fps= 11 q=31.0 size=   18688kB time=00:00:33.90 bitrate=4516.0kbits/s speed=0.178x    frame= 2086 fps= 11 q=31.0 size=   18688kB time=00:00:34.01 bitrate=4500.5kbits/s speed=0.178x    frame= 2091 fps= 11 q=31.0 size=   18688kB time=00:00:34.10 bitrate=4489.5kbits/s speed=0.178x    frame= 2098 fps= 11 q=31.0 size=   18944kB time=00:00:34.21 bitrate=4535.5kbits/s speed=0.178x    frame= 2104 fps= 11 q=31.0 size=   18944kB time=00:00:34.31 bitrate=4522.3kbits/s speed=0.178x    frame= 2111 fps= 11 q=31.0 size=   18944kB time=00:00:34.43 bitrate=4507.0kbits/s speed=0.178x    frame= 2117 fps= 11 q=31.0 size=   18944kB time=00:00:34.53 bitrate=4493.9kbits/s speed=0.178x    frame= 2123 fps= 11 q=31.0 size=   18944kB time=00:00:34.63 bitrate=4480.9kbits/s speed=0.178x    frame= 2129 fps= 11 q=31.0 size=   19200kB time=00:00:34.73 bitrate=4528.4kbits/s speed=0.178x    frame= 2135 fps= 11 q=31.0 size=   19200kB time=00:00:34.83 bitrate=4515.4kbits/s speed=0.179x    frame= 2141 fps= 11 q=31.0 size=   19200kB time=00:00:34.93 bitrate=4502.5kbits/s speed=0.179x    frame= 2148 fps= 11 q=31.0 size=   19200kB time=00:00:35.05 bitrate=4487.5kbits/s speed=0.179x    frame= 2154 fps= 11 q=31.0 size=   19456kB time=00:00:35.15 bitrate=4534.4kbits/s speed=0.179x    frame= 2161 fps= 11 q=31.0 size=   19456kB time=00:00:35.26 bitrate=4519.4kbits/s speed=0.179x    frame= 2167 fps= 11 q=31.0 size=   19456kB time=00:00:35.36 bitrate=4506.6kbits/s speed=0.179x    frame= 2172 fps= 11 q=31.0 size=   19456kB time=00:00:35.45 bitrate=4496.0kbits/s speed=0.179x    frame= 2179 fps= 11 q=31.0 size=   19456kB time=00:00:35.56 bitrate=4481.3kbits/s speed=0.179x    frame= 2186 fps= 11 q=31.0 size=   19712kB time=00:00:35.68 bitrate=4525.4kbits/s speed=0.179x    frame= 2193 fps= 11 q=31.0 size=   19712kB time=00:00:35.80 bitrate=4510.6kbits/s speed=0.179x    frame= 2201 fps= 11 q=31.0 size=   19712kB time=00:00:35.93 bitrate=4493.9kbits/s speed=0.179x    frame= 2205 fps= 11 q=31.0 size=   19712kB time=00:00:36.00 bitrate=4485.6kbits/s speed=0.179x    frame= 2212 fps= 11 q=31.0 size=   19968kB time=00:00:36.11 bitrate=4529.2kbits/s speed=0.179x    frame= 2219 fps= 11 q=31.0 size=   19968kB time=00:00:36.23 bitrate=4514.6kbits/s speed=0.179x    frame= 2226 fps= 11 q=31.0 size=   19968kB time=00:00:36.35 bitrate=4500.1kbits/s speed=0.179x    frame= 2233 fps= 11 q=31.0 size=   19968kB time=00:00:36.46 bitrate=4485.7kbits/s speed=0.179x    frame= 2240 fps= 11 q=31.0 size=   19968kB time=00:00:36.58 bitrate=4471.4kbits/s speed=0.179x    frame= 2244 fps= 11 q=31.0 size=   19968kB time=00:00:36.65 bitrate=4463.2kbits/s speed=0.179x    frame= 2250 fps= 11 q=31.0 size=   20224kB time=00:00:36.75 bitrate=4508.2kbits/s speed=0.179x    frame= 2257 fps= 11 q=31.0 size=   20224kB time=00:00:36.86 bitrate=4493.9kbits/s speed=0.179x    frame= 2264 fps= 11 q=31.0 size=   20224kB time=00:00:36.98 bitrate=4479.7kbits/s speed=0.179x    frame= 2270 fps= 11 q=31.0 size=   20224kB time=00:00:37.08 bitrate=4467.6kbits/s speed=0.18x    frame= 2277 fps= 11 q=31.0 size=   20224kB time=00:00:37.20 bitrate=4453.6kbits/s speed=0.18x    frame= 2284 fps= 11 q=31.0 size=   20480kB time=00:00:37.31 bitrate=4495.9kbits/s speed=0.18x    frame= 2291 fps= 11 q=31.0 size=   20480kB time=00:00:37.43 bitrate=4481.9kbits/s speed=0.18x    frame= 2297 fps= 11 q=31.0 size=   20480kB time=00:00:37.53 bitrate=4470.0kbits/s speed=0.18x    frame= 2304 fps= 11 q=31.0 size=   20736kB time=00:00:37.65 bitrate=4511.8kbits/s speed=0.18x    frame= 2310 fps= 11 q=31.0 size=   20736kB time=00:00:37.75 bitrate=4499.9kbits/s speed=0.18x    frame= 2317 fps= 11 q=31.0 size=   20736kB time=00:00:37.86 bitrate=4486.0kbits/s speed=0.18x    frame= 2323 fps= 11 q=31.0 size=   20736kB time=00:00:37.96 bitrate=4474.2kbits/s speed=0.18x    frame= 2329 fps= 11 q=31.0 size=   20736kB time=00:00:38.06 bitrate=4462.4kbits/s speed=0.18x    frame= 2336 fps= 11 q=31.0 size=   20992kB time=00:00:38.18 bitrate=4503.7kbits/s speed=0.18x    frame= 2343 fps= 11 q=31.0 size=   20992kB time=00:00:38.30 bitrate=4490.0kbits/s speed=0.18x    frame= 2349 fps= 11 q=31.0 size=   20992kB time=00:00:38.40 bitrate=4478.3kbits/s speed=0.18x    frame= 2356 fps= 11 q=31.0 size=   20992kB time=00:00:38.51 bitrate=4464.7kbits/s speed=0.18x    frame= 2362 fps= 11 q=31.0 size=   21248kB time=00:00:38.61 bitrate=4507.5kbits/s speed=0.18x    frame= 2369 fps= 11 q=31.0 size=   21248kB time=00:00:38.73 bitrate=4493.9kbits/s speed=0.18x    frame= 2376 fps= 11 q=31.0 size=   21248kB time=00:00:38.85 bitrate=4480.4kbits/s speed=0.181x    frame= 2383 fps= 11 q=31.0 size=   21248kB time=00:00:38.96 bitrate=4467.0kbits/s speed=0.181x    frame= 2389 fps= 11 q=31.0 size=   21248kB time=00:00:39.06 bitrate=4455.6kbits/s speed=0.181x    frame= 2396 fps= 11 q=31.0 size=   21504kB time=00:00:39.18 bitrate=4495.8kbits/s speed=0.181x    frame= 2403 fps= 11 q=31.0 size=   21504kB time=00:00:39.30 bitrate=4482.5kbits/s speed=0.181x    frame= 2410 fps= 11 q=31.0 size=   21504kB time=00:00:39.41 bitrate=4469.2kbits/s speed=0.181x    frame= 2415 fps= 11 q=31.0 size=   21504kB time=00:00:39.50 bitrate=4459.8kbits/s speed=0.181x    frame= 2421 fps= 11 q=31.0 size=   21504kB time=00:00:39.60 bitrate=4448.5kbits/s speed=0.181x    frame= 2427 fps= 11 q=31.0 size=   21760kB time=00:00:39.70 bitrate=4490.1kbits/s speed=0.181x    frame= 2433 fps= 11 q=31.0 size=   21760kB time=00:00:39.80 bitrate=4478.8kbits/s speed=0.181x    frame= 2441 fps= 11 q=31.0 size=   21760kB time=00:00:39.93 bitrate=4463.9kbits/s speed=0.181x    frame= 2447 fps= 11 q=31.0 size=   21760kB time=00:00:40.03 bitrate=4452.7kbits/s speed=0.181x    frame= 2452 fps= 11 q=31.0 size=   21760kB time=00:00:40.11 bitrate=4443.5kbits/s speed=0.181x    frame= 2459 fps= 11 q=31.0 size=   22016kB time=00:00:40.23 bitrate=4482.7kbits/s speed=0.181x    frame= 2465 fps= 11 q=31.0 size=   22016kB time=00:00:40.33 bitrate=4471.6kbits/s speed=0.181x    frame= 2472 fps= 11 q=31.0 size=   22016kB time=00:00:40.45 bitrate=4458.7kbits/s speed=0.181x    frame= 2479 fps= 11 q=31.0 size=   22016kB time=00:00:40.56 bitrate=4445.9kbits/s speed=0.181x    frame= 2485 fps= 11 q=31.0 size=   22272kB time=00:00:40.66 bitrate=4486.5kbits/s speed=0.181x    frame= 2493 fps= 11 q=31.0 size=   22272kB time=00:00:40.80 bitrate=4471.9kbits/s speed=0.181x    frame= 2498 fps= 11 q=31.0 size=   22272kB time=00:00:40.88 bitrate=4462.8kbits/s speed=0.181x    frame= 2505 fps= 11 q=31.0 size=   22272kB time=00:00:41.00 bitrate=4450.1kbits/s speed=0.181x    frame= 2512 fps= 11 q=31.0 size=   22528kB time=00:00:41.11 bitrate=4488.4kbits/s speed=0.181x    frame= 2518 fps= 11 q=31.0 size=   22528kB time=00:00:41.21 bitrate=4477.5kbits/s speed=0.181x    frame= 2524 fps= 11 q=31.0 size=   22528kB time=00:00:41.31 bitrate=4466.7kbits/s speed=0.182x    frame= 2531 fps= 11 q=31.0 size=   22528kB time=00:00:41.43 bitrate=4454.1kbits/s speed=0.182x    frame= 2538 fps= 11 q=31.0 size=   22528kB time=00:00:41.55 bitrate=4441.6kbits/s speed=0.182x    frame= 2544 fps= 11 q=31.0 size=   22784kB time=00:00:41.65 bitrate=4481.3kbits/s speed=0.182x    frame= 2550 fps= 11 q=31.0 size=   22784kB time=00:00:41.75 bitrate=4470.6kbits/s speed=0.182x    frame= 2557 fps= 11 q=31.0 size=   22784kB time=00:00:41.86 bitrate=4458.1kbits/s speed=0.182x    frame= 2563 fps= 11 q=31.0 size=   23040kB time=00:00:41.96 bitrate=4497.5kbits/s speed=0.182x    frame= 2569 fps= 11 q=31.0 size=   23040kB time=00:00:42.06 bitrate=4486.8kbits/s speed=0.182x    frame= 2576 fps= 11 q=31.0 size=   23040kB time=00:00:42.18 bitrate=4474.4kbits/s speed=0.182x    frame= 2582 fps= 11 q=31.0 size=   23040kB time=00:00:42.28 bitrate=4463.8kbits/s speed=0.182x    frame= 2589 fps= 11 q=31.0 size=   23040kB time=00:00:42.40 bitrate=4451.5kbits/s speed=0.182x    frame= 2597 fps= 11 q=31.0 size=   23296kB time=00:00:42.53 bitrate=4486.9kbits/s speed=0.182x    frame= 2604 fps= 11 q=31.0 size=   23296kB time=00:00:42.65 bitrate=4474.6kbits/s speed=0.182x    frame= 2611 fps= 11 q=31.0 size=   23296kB time=00:00:42.76 bitrate=4462.4kbits/s speed=0.182x    frame= 2617 fps= 11 q=31.0 size=   23296kB time=00:00:42.86 bitrate=4452.0kbits/s speed=0.182x    frame= 2624 fps= 11 q=31.0 size=   23296kB time=00:00:42.98 bitrate=4439.9kbits/s speed=0.182x    frame= 2630 fps= 11 q=31.0 size=   23552kB time=00:00:43.08 bitrate=4478.3kbits/s speed=0.182x    frame= 2636 fps= 11 q=31.0 size=   23552kB time=00:00:43.18 bitrate=4467.9kbits/s speed=0.182x    frame= 2642 fps= 11 q=31.0 size=   23552kB time=00:00:43.28 bitrate=4457.6kbits/s speed=0.182x    frame= 2648 fps= 11 q=31.0 size=   23552kB time=00:00:43.38 bitrate=4447.3kbits/s speed=0.182x    frame= 2654 fps= 11 q=31.0 size=   23552kB time=00:00:43.48 bitrate=4437.1kbits/s speed=0.182x    frame= 2660 fps= 11 q=31.0 size=   23808kB time=00:00:43.58 bitrate=4475.0kbits/s speed=0.182x    frame= 2667 fps= 11 q=31.0 size=   23808kB time=00:00:43.70 bitrate=4463.0kbits/s speed=0.182x    frame= 2673 fps= 11 q=31.0 size=   23808kB time=00:00:43.80 bitrate=4452.9kbits/s speed=0.182x    frame= 2680 fps= 11 q=31.0 size=   23808kB time=00:00:43.91 bitrate=4441.0kbits/s speed=0.183x    frame= 2687 fps= 11 q=31.0 size=   24064kB time=00:00:44.03 bitrate=4476.9kbits/s speed=0.183x    frame= 2691 fps= 11 q=31.0 size=   24064kB time=00:00:44.10 bitrate=4470.1kbits/s speed=0.182x    frame= 2698 fps= 11 q=31.0 size=   24064kB time=00:00:44.21 bitrate=4458.3kbits/s speed=0.183x    frame= 2703 fps= 11 q=31.0 size=   24064kB time=00:00:44.30 bitrate=4449.9kbits/s speed=0.183x    frame= 2709 fps= 11 q=31.0 size=   24064kB time=00:00:44.40 bitrate=4439.9kbits/s speed=0.183x    frame= 2715 fps= 11 q=31.0 size=   24320kB time=00:00:44.50 bitrate=4477.1kbits/s speed=0.183x    frame= 2721 fps= 11 q=31.0 size=   24320kB time=00:00:44.60 bitrate=4467.0kbits/s speed=0.183x    frame= 2727 fps= 11 q=31.0 size=   24320kB time=00:00:44.70 bitrate=4457.0kbits/s speed=0.183x    frame= 2733 fps= 11 q=31.0 size=   24320kB time=00:00:44.80 bitrate=4447.1kbits/s speed=0.183x    frame= 2740 fps= 11 q=31.0 size=   24576kB time=00:00:44.91 bitrate=4482.2kbits/s speed=0.183x    frame= 2745 fps= 11 q=31.0 size=   24576kB time=00:00:45.00 bitrate=4473.9kbits/s speed=0.183x    frame= 2751 fps= 11 q=31.0 size=   24576kB time=00:00:45.10 bitrate=4464.0kbits/s speed=0.183x    frame= 2758 fps= 11 q=31.0 size=   24576kB time=00:00:45.21 bitrate=4452.5kbits/s speed=0.183x    [NULL @ 0x7f1c84e86080] Invalid maxval: 0
    Last message repeated 1 times
frame= 2764 fps= 11 q=31.0 size=   24576kB time=00:00:45.31 bitrate=4442.7kbits/s speed=0.183x    frame= 2772 fps= 11 q=31.0 size=   24832kB time=00:00:45.45 bitrate=4475.8kbits/s speed=0.183x    frame= 2777 fps= 11 q=31.0 size=   24832kB time=00:00:45.53 bitrate=4467.6kbits/s speed=0.183x    frame= 2782 fps= 11 q=31.0 size=   24832kB time=00:00:45.61 bitrate=4459.4kbits/s speed=0.183x    frame= 2788 fps= 11 q=31.0 size=   24832kB time=00:00:45.71 bitrate=4449.7kbits/s speed=0.183x    frame= 2795 fps= 11 q=31.0 size=   25088kB time=00:00:45.83 bitrate=4484.1kbits/s speed=0.183x    frame= 2802 fps= 11 q=31.0 size=   25088kB time=00:00:45.95 bitrate=4472.7kbits/s speed=0.183x    frame= 2808 fps= 11 q=31.0 size=   25088kB time=00:00:46.05 bitrate=4463.0kbits/s speed=0.183x    frame= 2813 fps= 11 q=31.0 size=   25344kB time=00:00:46.13 bitrate=4500.4kbits/s speed=0.183x    frame= 2819 fps= 11 q=31.0 size=   25344kB time=00:00:46.23 bitrate=4490.7kbits/s speed=0.183x    frame= 2825 fps= 11 q=31.0 size=   25344kB time=00:00:46.33 bitrate=4481.0kbits/s speed=0.183x    frame= 2831 fps= 11 q=31.0 size=   25344kB time=00:00:46.43 bitrate=4471.3kbits/s speed=0.183x    frame= 2837 fps= 11 q=31.0 size=   25344kB time=00:00:46.53 bitrate=4461.7kbits/s speed=0.183x    frame= 2843 fps= 11 q=31.0 size=   25600kB time=00:00:46.63 bitrate=4497.1kbits/s speed=0.183x    frame= 2848 fps= 11 q=31.0 size=   25600kB time=00:00:46.71 bitrate=4489.1kbits/s speed=0.183x    frame= 2854 fps= 11 q=31.0 size=   25600kB time=00:00:46.81 bitrate=4479.5kbits/s speed=0.183x    frame= 2860 fps= 11 q=31.0 size=   25856kB time=00:00:46.91 bitrate=4514.7kbits/s speed=0.183x    frame= 2867 fps= 11 q=31.0 size=   25856kB time=00:00:47.03 bitrate=4503.5kbits/s speed=0.183x    frame= 2872 fps= 11 q=31.0 size=   25856kB time=00:00:47.11 bitrate=4495.5kbits/s speed=0.183x    frame= 2878 fps= 11 q=31.0 size=   25856kB time=00:00:47.21 bitrate=4486.0kbits/s speed=0.183x    frame= 2885 fps= 11 q=31.0 size=   26112kB time=00:00:47.33 bitrate=4519.2kbits/s speed=0.183x    frame= 2891 fps= 11 q=31.0 size=   26112kB time=00:00:47.43 bitrate=4509.7kbits/s speed=0.183x    frame= 2896 fps= 11 q=31.0 size=   26112kB time=00:00:47.51 bitrate=4501.8kbits/s speed=0.183x    frame= 2902 fps= 11 q=31.0 size=   26112kB time=00:00:47.61 bitrate=4492.3kbits/s speed=0.183x    frame= 2909 fps= 11 q=31.0 size=   26112kB time=00:00:47.73 bitrate=4481.3kbits/s speed=0.183x    frame= 2916 fps= 11 q=31.0 size=   26368kB time=00:00:47.85 bitrate=4514.2kbits/s speed=0.183x    frame= 2922 fps= 11 q=31.0 size=   26368kB time=00:00:47.95 bitrate=4504.8kbits/s speed=0.183x    frame= 2929 fps= 11 q=31.0 size=   26368kB time=00:00:48.06 bitrate=4493.9kbits/s speed=0.183x    frame= 2935 fps= 11 q=31.0 size=   26368kB time=00:00:48.16 bitrate=4484.6kbits/s speed=0.183x    frame= 2940 fps= 11 q=31.0 size=   26624kB time=00:00:48.25 bitrate=4520.3kbits/s speed=0.183x    frame= 2945 fps= 11 q=31.0 size=   26624kB time=00:00:48.33 bitrate=4512.5kbits/s speed=0.183x    frame= 2950 fps= 11 q=31.0 size=   26624kB time=00:00:48.41 bitrate=4504.7kbits/s speed=0.183x    frame= 2956 fps= 11 q=31.0 size=   26624kB time=00:00:48.51 bitrate=4495.4kbits/s speed=0.183x    frame= 2961 fps= 11 q=31.0 size=   26624kB time=00:00:48.60 bitrate=4487.7kbits/s speed=0.183x    frame= 2969 fps= 11 q=31.0 size=   26880kB time=00:00:48.73 bitrate=4518.5kbits/s speed=0.183x    frame= 2976 fps= 11 q=31.0 size=   26880kB time=00:00:48.85 bitrate=4507.7kbits/s speed=0.183x    frame= 2981 fps= 11 q=31.0 size=   26880kB time=00:00:48.93 bitrate=4500.0kbits/s speed=0.183x    frame= 2988 fps= 11 q=31.0 size=   26880kB time=00:00:49.05 bitrate=4489.3kbits/s speed=0.183x    frame= 2993 fps= 11 q=31.0 size=   26880kB time=00:00:49.13 bitrate=4481.7kbits/s speed=0.183x    frame= 2999 fps= 11 q=31.0 size=   27136kB time=00:00:49.23 bitrate=4515.2kbits/s speed=0.183x    frame= 3005 fps= 11 q=31.0 size=   27136kB time=00:00:49.33 bitrate=4506.0kbits/s speed=0.183x    frame= 3010 fps= 11 q=31.0 size=   27136kB time=00:00:49.41 bitrate=4498.4kbits/s speed=0.183x    frame= 3015 fps= 11 q=31.0 size=   27136kB time=00:00:49.50 bitrate=4490.9kbits/s speed=0.183x    frame= 3021 fps= 11 q=31.0 size=   27136kB time=00:00:49.60 bitrate=4481.8kbits/s speed=0.183x    frame= 3027 fps= 11 q=31.0 size=   27392kB time=00:00:49.70 bitrate=4515.0kbits/s speed=0.183x    frame= 3033 fps= 11 q=31.0 size=   27392kB time=00:00:49.80 bitrate=4505.9kbits/s speed=0.183x    frame= 3039 fps= 11 q=31.0 size=   27392kB time=00:00:49.90 bitrate=4496.9kbits/s speed=0.183x    frame= 3045 fps= 11 q=31.0 size=   27648kB time=00:00:50.00 bitrate=4529.9kbits/s speed=0.183x    frame= 3051 fps= 11 q=31.0 size=   27648kB time=00:00:50.10 bitrate=4520.8kbits/s speed=0.183x    frame= 3057 fps= 11 q=31.0 size=   27648kB time=00:00:50.20 bitrate=4511.8kbits/s speed=0.183x    frame= 3063 fps= 11 q=31.0 size=   27648kB time=00:00:50.30 bitrate=4502.8kbits/s speed=0.183x    frame= 3069 fps= 11 q=31.0 size=   27904kB time=00:00:50.40 bitrate=4535.5kbits/s speed=0.183x    frame= 3075 fps= 11 q=31.0 size=   27904kB time=00:00:50.50 bitrate=4526.5kbits/s speed=0.183x    frame= 3082 fps= 11 q=31.0 size=   27904kB time=00:00:50.61 bitrate=4516.1kbits/s speed=0.183x    frame= 3089 fps= 11 q=31.0 size=   27904kB time=00:00:50.73 bitrate=4505.7kbits/s speed=0.183x    frame= 3094 fps= 11 q=31.0 size=   27904kB time=00:00:50.81 bitrate=4498.3kbits/s speed=0.183x    frame= 3101 fps= 11 q=31.0 size=   28160kB time=00:00:50.93 bitrate=4529.2kbits/s speed=0.183x    frame= 3106 fps= 11 q=31.0 size=   28160kB time=00:00:51.01 bitrate=4521.8kbits/s speed=0.183x    frame= 3112 fps= 11 q=31.0 size=   28160kB time=00:00:51.11 bitrate=4512.9kbits/s speed=0.183x    frame= 3117 fps= 11 q=31.0 size=   28160kB time=00:00:51.20 bitrate=4505.6kbits/s speed=0.183x    frame= 3121 fps= 11 q=31.0 size=   28160kB time=00:00:51.26 bitrate=4499.7kbits/s speed=0.183x    frame= 3127 fps= 11 q=31.0 size=   28416kB time=00:00:51.36 bitrate=4531.8kbits/s speed=0.183x    frame= 3132 fps= 11 q=31.0 size=   28416kB time=00:00:51.45 bitrate=4524.5kbits/s speed=0.183x    frame= 3137 fps= 11 q=31.0 size=   28416kB time=00:00:51.53 bitrate=4517.2kbits/s speed=0.183x    frame= 3143 fps= 11 q=31.0 size=   28416kB time=00:00:51.63 bitrate=4508.4kbits/s speed=0.183x    frame= 3150 fps= 11 q=31.0 size=   28672kB time=00:00:51.75 bitrate=4538.8kbits/s speed=0.183x    frame= 3156 fps= 11 q=31.0 size=   28672kB time=00:00:51.85 bitrate=4530.0kbits/s speed=0.183x    frame= 3163 fps= 11 q=31.0 size=   28672kB time=00:00:51.96 bitrate=4519.8kbits/s speed=0.183x    frame= 3168 fps= 11 q=31.0 size=   28672kB time=00:00:52.05 bitrate=4512.6kbits/s speed=0.183x    frame= 3173 fps= 11 q=31.0 size=   28672kB time=00:00:52.13 bitrate=4505.4kbits/s speed=0.183x    frame= 3179 fps= 11 q=31.0 size=   28928kB time=00:00:52.23 bitrate=4536.9kbits/s speed=0.183x    frame= 3185 fps= 11 q=31.0 size=   28928kB time=00:00:52.33 bitrate=4528.2kbits/s speed=0.183x    frame= 3191 fps= 11 q=31.0 size=   28928kB time=00:00:52.43 bitrate=4519.6kbits/s speed=0.183x    frame= 3197 fps= 11 q=31.0 size=   28928kB time=00:00:52.53 bitrate=4511.0kbits/s speed=0.183x    frame= 3203 fps= 11 q=31.0 size=   28928kB time=00:00:52.63 bitrate=4502.4kbits/s speed=0.183x    frame= 3209 fps= 11 q=31.0 size=   29184kB time=00:00:52.73 bitrate=4533.7kbits/s speed=0.182x    frame= 3214 fps= 11 q=31.0 size=   29184kB time=00:00:52.81 bitrate=4526.5kbits/s speed=0.182x    frame= 3220 fps= 11 q=31.0 size=   29184kB time=00:00:52.91 bitrate=4518.0kbits/s speed=0.182x    frame= 3226 fps= 11 q=31.0 size=   29184kB time=00:00:53.01 bitrate=4509.4kbits/s speed=0.182x    frame= 3231 fps= 11 q=31.0 size=   29440kB time=00:00:53.10 bitrate=4541.9kbits/s speed=0.182x    frame= 3237 fps= 11 q=31.0 size=   29440kB time=00:00:53.20 bitrate=4533.3kbits/s speed=0.182x    frame= 3242 fps= 11 q=31.0 size=   29440kB time=00:00:53.28 bitrate=4526.2kbits/s speed=0.182x    frame= 3247 fps= 11 q=31.0 size=   29440kB time=00:00:53.36 bitrate=4519.2kbits/s speed=0.182x    frame= 3253 fps= 11 q=31.0 size=   29440kB time=00:00:53.46 bitrate=4510.7kbits/s speed=0.182x    frame= 3258 fps= 11 q=31.0 size=   29696kB time=00:00:53.55 bitrate=4542.9kbits/s speed=0.182x    frame= 3264 fps= 11 q=31.0 size=   29696kB time=00:00:53.65 bitrate=4534.4kbits/s speed=0.182x    frame= 3270 fps= 11 q=31.0 size=   29696kB time=00:00:53.75 bitrate=4525.9kbits/s speed=0.182x    frame= 3274 fps= 11 q=31.0 size=   29696kB time=00:00:53.81 bitrate=4520.3kbits/s speed=0.182x    frame= 3280 fps= 11 q=31.0 size=   29952kB time=00:00:53.91 bitrate=4550.9kbits/s speed=0.182x    frame= 3285 fps= 11 q=31.0 size=   29952kB time=00:00:54.00 bitrate=4543.8kbits/s speed=0.182x    frame= 3291 fps= 11 q=31.0 size=   29952kB time=00:00:54.10 bitrate=4535.4kbits/s speed=0.182x    frame= 3296 fps= 11 q=31.0 size=   30208kB time=00:00:54.18 bitrate=4567.2kbits/s speed=0.182x    frame= 3302 fps= 11 q=31.0 size=   30208kB time=00:00:54.28 bitrate=4558.7kbits/s speed=0.182x    frame= 3306 fps= 11 q=31.0 size=   30208kB time=00:00:54.35 bitrate=4553.2kbits/s speed=0.182x    frame= 3313 fps= 11 q=31.0 size=   30208kB time=00:00:54.46 bitrate=4543.4kbits/s speed=0.182x    frame= 3319 fps= 11 q=31.0 size=   30208kB time=00:00:54.56 bitrate=4535.1kbits/s speed=0.182x    frame= 3323 fps= 11 q=31.0 size=   30464kB time=00:00:54.63 bitrate=4567.9kbits/s speed=0.182x    frame= 3329 fps= 11 q=31.0 size=   30464kB time=00:00:54.73 bitrate=4559.6kbits/s speed=0.182x    frame= 3335 fps= 11 q=31.0 size=   30464kB time=00:00:54.83 bitrate=4551.3kbits/s speed=0.182x    frame= 3340 fps= 11 q=31.0 size=   30464kB time=00:00:54.91 bitrate=4544.4kbits/s speed=0.182x    frame= 3346 fps= 11 q=31.0 size=   30720kB time=00:00:55.01 bitrate=4574.2kbits/s speed=0.182x    frame= 3352 fps= 11 q=31.0 size=   30720kB time=00:00:55.11 bitrate=4565.9kbits/s speed=0.182x    frame= 3356 fps= 11 q=31.0 size=   30720kB time=00:00:55.18 bitrate=4560.4kbits/s speed=0.182x    frame= 3362 fps= 11 q=31.0 size=   30720kB time=00:00:55.28 bitrate=4552.2kbits/s speed=0.182x    frame= 3368 fps= 11 q=31.0 size=   30720kB time=00:00:55.38 bitrate=4543.9kbits/s speed=0.182x    frame= 3372 fps= 11 q=31.0 size=   30976kB time=00:00:55.45 bitrate=4576.3kbits/s speed=0.182x    frame= 3378 fps= 11 q=31.0 size=   30976kB time=00:00:55.55 bitrate=4568.1kbits/s speed=0.182x    frame= 3384 fps= 11 q=31.0 size=   30976kB time=00:00:55.65 bitrate=4559.8kbits/s speed=0.182x    frame= 3390 fps= 11 q=31.0 size=   30976kB time=00:00:55.75 bitrate=4551.7kbits/s speed=0.182x    frame= 3396 fps= 11 q=31.0 size=   31232kB time=00:00:55.85 bitrate=4581.1kbits/s speed=0.182x    frame= 3401 fps= 11 q=31.0 size=   31232kB time=00:00:55.93 bitrate=4574.2kbits/s speed=0.182x    frame= 3406 fps= 11 q=31.0 size=   31232kB time=00:00:56.01 bitrate=4567.4kbits/s speed=0.182x    frame= 3411 fps= 11 q=31.0 size=   31232kB time=00:00:56.10 bitrate=4560.7kbits/s speed=0.182x    frame= 3417 fps= 11 q=31.0 size=   31232kB time=00:00:56.20 bitrate=4552.5kbits/s speed=0.182x    frame= 3422 fps= 11 q=31.0 size=   31488kB time=00:00:56.28 bitrate=4583.1kbits/s speed=0.182x    frame= 3427 fps= 11 q=31.0 size=   31488kB time=00:00:56.36 bitrate=4576.3kbits/s speed=0.182x    frame= 3432 fps= 11 q=31.0 size=   31488kB time=00:00:56.45 bitrate=4569.5kbits/s speed=0.181x    frame= 3437 fps= 11 q=31.0 size=   31488kB time=00:00:56.53 bitrate=4562.8kbits/s speed=0.181x    frame= 3443 fps= 11 q=31.0 size=   31744kB time=00:00:56.63 bitrate=4591.8kbits/s speed=0.181x    frame= 3448 fps= 11 q=31.0 size=   31744kB time=00:00:56.71 bitrate=4585.0kbits/s speed=0.181x    frame= 3454 fps= 11 q=31.0 size=   31744kB time=00:00:56.81 bitrate=4576.9kbits/s speed=0.181x    frame= 3459 fps= 11 q=31.0 size=   31744kB time=00:00:56.90 bitrate=4570.2kbits/s speed=0.181x    frame= 3464 fps= 11 q=31.0 size=   32000kB time=00:00:56.98 bitrate=4600.4kbits/s speed=0.181x    frame= 3469 fps= 11 q=31.0 size=   32000kB time=00:00:57.06 bitrate=4593.6kbits/s speed=0.181x    frame= 3475 fps= 11 q=31.0 size=   32000kB time=00:00:57.16 bitrate=4585.6kbits/s speed=0.181x    frame= 3480 fps= 11 q=31.0 size=   32000kB time=00:00:57.25 bitrate=4578.9kbits/s speed=0.181x    frame= 3485 fps= 11 q=31.0 size=   32256kB time=00:00:57.33 bitrate=4608.9kbits/s speed=0.181x    frame= 3491 fps= 11 q=31.0 size=   32256kB time=00:00:57.43 bitrate=4600.8kbits/s speed=0.181x    frame= 3497 fps= 11 q=31.0 size=   32256kB time=00:00:57.53 bitrate=4592.8kbits/s speed=0.181x    frame= 3503 fps= 11 q=31.0 size=   32512kB time=00:00:57.63 bitrate=4621.3kbits/s speed=0.181x    frame= 3508 fps= 11 q=31.0 size=   32512kB time=00:00:57.71 bitrate=4614.6kbits/s speed=0.181x    frame= 3514 fps= 11 q=31.0 size=   32512kB time=00:00:57.81 bitrate=4606.6kbits/s speed=0.181x    frame= 3520 fps= 11 q=31.0 size=   32512kB time=00:00:57.91 bitrate=4598.6kbits/s speed=0.181x    frame= 3524 fps= 11 q=31.0 size=   32768kB time=00:00:57.98 bitrate=4629.5kbits/s speed=0.181x    frame= 3529 fps= 11 q=31.0 size=   32768kB time=00:00:58.06 bitrate=4622.9kbits/s speed=0.181x    frame= 3534 fps= 11 q=31.0 size=   32768kB time=00:00:58.15 bitrate=4616.3kbits/s speed=0.181x    frame= 3539 fps= 11 q=31.0 size=   32768kB time=00:00:58.23 bitrate=4609.7kbits/s speed=0.181x    frame= 3544 fps= 11 q=31.0 size=   33024kB time=00:00:58.31 bitrate=4639.0kbits/s speed=0.181x    frame= 3550 fps= 11 q=31.0 size=   33024kB time=00:00:58.41 bitrate=4631.1kbits/s speed=0.181x    frame= 3554 fps= 11 q=31.0 size=   33024kB time=00:00:58.48 bitrate=4625.8kbits/s speed=0.181x    frame= 3559 fps= 11 q=31.0 size=   33280kB time=00:00:58.56 bitrate=4655.0kbits/s speed=0.181x    frame= 3565 fps= 11 q=31.0 size=   33280kB time=00:00:58.66 bitrate=4647.1kbits/s speed=0.181x    frame= 3571 fps= 11 q=31.0 size=   33280kB time=00:00:58.76 bitrate=4639.2kbits/s speed=0.181x    frame= 3576 fps= 11 q=31.0 size=   33280kB time=00:00:58.85 bitrate=4632.6kbits/s speed=0.181x    frame= 3582 fps= 11 q=31.0 size=   33536kB time=00:00:58.95 bitrate=4660.3kbits/s speed=0.181x    frame= 3586 fps= 11 q=31.0 size=   33536kB time=00:00:59.01 bitrate=4655.1kbits/s speed=0.181x    frame= 3591 fps= 11 q=31.0 size=   33536kB time=00:00:59.10 bitrate=4648.5kbits/s speed=0.181x    frame= 3596 fps= 11 q=31.0 size=   33536kB time=00:00:59.18 bitrate=4642.0kbits/s speed=0.181x    frame= 3602 fps= 11 q=31.0 size=   33792kB time=00:00:59.28 bitrate=4669.5kbits/s speed=0.181x    frame= 3608 fps= 11 q=31.0 size=   33792kB time=00:00:59.38 bitrate=4661.6kbits/s speed=0.181x    frame= 3614 fps= 11 q=31.0 size=   33792kB time=00:00:59.48 bitrate=4653.8kbits/s speed=0.18x    frame= 3619 fps= 11 q=31.0 size=   33792kB time=00:00:59.56 bitrate=4647.3kbits/s speed=0.18x    frame= 3625 fps= 11 q=31.0 size=   34048kB time=00:00:59.66 bitrate=4674.7kbits/s speed=0.18x    frame= 3631 fps= 11 q=31.0 size=   34048kB time=00:00:59.76 bitrate=4666.8kbits/s speed=0.18x    frame= 3637 fps= 11 q=31.0 size=   34048kB time=00:00:59.86 bitrate=4659.0kbits/s speed=0.18x    frame= 3643 fps= 11 q=31.0 size=   34048kB time=00:00:59.96 bitrate=4651.3kbits/s speed=0.18x    frame= 3649 fps= 11 q=31.0 size=   34304kB time=00:01:00.06 bitrate=4678.4kbits/s speed=0.18x    frame= 3654 fps= 11 q=31.0 size=   34304kB time=00:01:00.15 bitrate=4672.0kbits/s speed=0.18x    frame= 3658 fps= 11 q=31.0 size=   34304kB time=00:01:00.21 bitrate=4666.8kbits/s speed=0.18x    frame= 3663 fps= 11 q=31.0 size=   34304kB time=00:01:00.30 bitrate=4660.3kbits/s speed=0.18x    frame= 3670 fps= 11 q=31.0 size=   34560kB time=00:01:00.41 bitrate=4686.1kbits/s speed=0.18x    frame= 3675 fps= 11 q=31.0 size=   34560kB time=00:01:00.50 bitrate=4679.6kbits/s speed=0.18x    frame= 3680 fps= 11 q=31.0 size=   34560kB time=00:01:00.58 bitrate=4673.2kbits/s speed=0.18x    frame= 3685 fps= 11 q=31.0 size=   34560kB time=00:01:00.66 bitrate=4666.7kbits/s speed=0.18x    frame= 3690 fps= 11 q=31.0 size=   34560kB time=00:01:00.75 bitrate=4660.3kbits/s speed=0.18x    frame= 3695 fps= 11 q=31.0 size=   34816kB time=00:01:00.83 bitrate=4688.4kbits/s speed=0.18x    frame= 3700 fps= 11 q=31.0 size=   34816kB time=00:01:00.91 bitrate=4682.0kbits/s speed=0.18x    frame= 3706 fps= 11 q=31.0 size=   34816kB time=00:01:01.01 bitrate=4674.3kbits/s speed=0.18x    frame= 3711 fps= 11 q=31.0 size=   34816kB time=00:01:01.10 bitrate=4668.0kbits/s speed=0.18x    frame= 3714 fps= 11 q=31.0 size=   34816kB time=00:01:01.15 bitrate=4664.1kbits/s speed=0.18x    frame= 3719 fps= 11 q=31.0 size=   35072kB time=00:01:01.23 bitrate=4692.1kbits/s speed=0.18x    frame= 3724 fps= 11 q=31.0 size=   35072kB time=00:01:01.31 bitrate=4685.7kbits/s speed=0.18x    frame= 3729 fps= 11 q=31.0 size=   35072kB time=00:01:01.40 bitrate=4679.3kbits/s speed=0.18x    frame= 3734 fps= 11 q=31.0 size=   35072kB time=00:01:01.48 bitrate=4673.0kbits/s speed=0.18x    frame= 3739 fps= 11 q=31.0 size=   35072kB time=00:01:01.56 bitrate=4666.6kbits/s speed=0.18x    frame= 3744 fps= 11 q=31.0 size=   35328kB time=00:01:01.65 bitrate=4694.4kbits/s speed=0.18x    frame= 3749 fps= 11 q=31.0 size=   35328kB time=00:01:01.73 bitrate=4688.0kbits/s speed=0.18x    frame= 3754 fps= 11 q=31.0 size=   35328kB time=00:01:01.81 bitrate=4681.7kbits/s speed=0.18x    frame= 3759 fps= 11 q=31.0 size=   35328kB time=00:01:01.90 bitrate=4675.4kbits/s speed=0.18x    frame= 3765 fps= 11 q=31.0 size=   35328kB time=00:01:02.00 bitrate=4667.9kbits/s speed=0.18x    frame= 3770 fps= 11 q=31.0 size=   35584kB time=00:01:02.08 bitrate=4695.4kbits/s speed=0.18x    frame= 3775 fps= 11 q=31.0 size=   35584kB time=00:01:02.16 bitrate=4689.1kbits/s speed=0.18x    frame= 3781 fps= 11 q=31.0 size=   35584kB time=00:01:02.26 bitrate=4681.5kbits/s speed=0.18x    frame= 3787 fps= 11 q=31.0 size=   35584kB time=00:01:02.36 bitrate=4674.0kbits/s speed=0.18x    frame= 3792 fps= 11 q=31.0 size=   35584kB time=00:01:02.45 bitrate=4667.8kbits/s speed=0.18x    frame= 3797 fps= 11 q=31.0 size=   35840kB time=00:01:02.53 bitrate=4695.1kbits/s speed=0.179x    frame= 3803 fps= 11 q=31.0 size=   35840kB time=00:01:02.63 bitrate=4687.6kbits/s speed=0.179x    frame= 3809 fps= 11 q=31.0 size=   35840kB time=00:01:02.73 bitrate=4680.1kbits/s speed=0.179x    frame= 3815 fps= 11 q=31.0 size=   35840kB time=00:01:02.83 bitrate=4672.7kbits/s speed=0.179x    frame= 3821 fps= 11 q=31.0 size=   36096kB time=00:01:02.93 bitrate=4698.6kbits/s speed=0.179x    frame= 3826 fps= 11 q=31.0 size=   36096kB time=00:01:03.01 bitrate=4692.4kbits/s speed=0.179x    frame= 3832 fps= 11 q=31.0 size=   36096kB time=00:01:03.11 bitrate=4685.0kbits/s speed=0.179x    frame= 3838 fps= 11 q=31.0 size=   36096kB time=00:01:03.21 bitrate=4677.5kbits/s speed=0.179x    frame= 3844 fps= 11 q=31.0 size=   36096kB time=00:01:03.31 bitrate=4670.2kbits/s speed=0.179x    frame= 3850 fps= 11 q=31.0 size=   36096kB time=00:01:03.41 bitrate=4662.8kbits/s speed=0.179x    frame= 3855 fps= 11 q=31.0 size=   36096kB time=00:01:03.50 bitrate=4656.7kbits/s speed=0.179x    frame= 3861 fps= 11 q=31.0 size=   36096kB time=00:01:03.60 bitrate=4649.3kbits/s speed=0.179x    frame= 3867 fps= 11 q=31.0 size=   36352kB time=00:01:03.70 bitrate=4675.0kbits/s speed=0.179x    frame= 3874 fps= 11 q=31.0 size=   36352kB time=00:01:03.81 bitrate=4666.4kbits/s speed=0.18x    frame= 3880 fps= 11 q=31.0 size=   36352kB time=00:01:03.91 bitrate=4659.1kbits/s speed=0.18x    frame= 3885 fps= 11 q=31.0 size=   36352kB time=00:01:04.00 bitrate=4653.1kbits/s speed=0.18x    frame= 3890 fps= 11 q=31.0 size=   36352kB time=00:01:04.08 bitrate=4647.0kbits/s speed=0.179x    frame= 3896 fps= 11 q=31.0 size=   36352kB time=00:01:04.18 bitrate=4639.8kbits/s speed=0.179x    frame= 3902 fps= 11 q=31.0 size=   36352kB time=00:01:04.28 bitrate=4632.5kbits/s speed=0.179x    frame= 3909 fps= 11 q=31.0 size=   36352kB time=00:01:04.40 bitrate=4624.2kbits/s speed=0.18x    frame= 3916 fps= 11 q=31.0 size=   36352kB time=00:01:04.51 bitrate=4615.8kbits/s speed=0.18x    frame= 3921 fps= 11 q=31.0 size=   36352kB time=00:01:04.60 bitrate=4609.8kbits/s speed=0.18x    frame= 3927 fps= 11 q=31.0 size=   36608kB time=00:01:04.70 bitrate=4635.1kbits/s speed=0.18x    frame= 3932 fps= 11 q=31.0 size=   36608kB time=00:01:04.78 bitrate=4629.2kbits/s speed=0.179x    frame= 3937 fps= 11 q=31.0 size=   36608kB time=00:01:04.86 bitrate=4623.2kbits/s speed=0.179x    frame= 3943 fps= 11 q=31.0 size=   36608kB time=00:01:04.96 bitrate=4616.1kbits/s speed=0.179x    frame= 3948 fps= 11 q=31.0 size=   36608kB time=00:01:05.05 bitrate=4610.2kbits/s speed=0.179x    frame= 3956 fps= 11 q=31.0 size=   36608kB time=00:01:05.18 bitrate=4600.8kbits/s speed=0.179x    frame= 3963 fps= 11 q=31.0 size=   36608kB time=00:01:05.30 bitrate=4592.5kbits/s speed=0.18x    frame= 3969 fps= 11 q=31.0 size=   36608kB time=00:01:05.40 bitrate=4585.5kbits/s speed=0.18x    frame= 3976 fps= 11 q=31.0 size=   36608kB time=00:01:05.51 bitrate=4577.4kbits/s speed=0.18x    frame= 3982 fps= 11 q=31.0 size=   36608kB time=00:01:05.61 bitrate=4570.4kbits/s speed=0.18x    frame= 3988 fps= 11 q=31.0 size=   36608kB time=00:01:05.71 bitrate=4563.4kbits/s speed=0.18x    frame= 3995 fps= 11 q=31.0 size=   36608kB time=00:01:05.83 bitrate=4555.3kbits/s speed=0.18x    frame= 4001 fps= 11 q=31.0 size=   36608kB time=00:01:05.93 bitrate=4548.4kbits/s speed=0.18x    frame= 4007 fps= 11 q=31.0 size=   36864kB time=00:01:06.03 bitrate=4573.3kbits/s speed=0.18x    frame= 4012 fps= 11 q=31.0 size=   36864kB time=00:01:06.11 bitrate=4567.5kbits/s speed=0.18x    frame= 4018 fps= 11 q=31.0 size=   36864kB time=00:01:06.21 bitrate=4560.6kbits/s speed=0.18x    frame= 4023 fps= 11 q=31.0 size=   36864kB time=00:01:06.30 bitrate=4554.9kbits/s speed=0.18x    frame= 4031 fps= 11 q=31.0 size=   36864kB time=00:01:06.43 bitrate=4545.8kbits/s speed=0.18x    frame= 4037 fps= 11 q=31.0 size=   36864kB time=00:01:06.53 bitrate=4538.9kbits/s speed=0.18x    frame= 4043 fps= 11 q=29.0 size=   36864kB time=00:01:06.63 bitrate=4532.1kbits/s speed=0.18x    frame= 4049 fps= 11 q=31.0 size=   36864kB time=00:01:06.73 bitrate=4525.3kbits/s speed=0.18x    frame= 4055 fps= 11 q=31.0 size=   36864kB time=00:01:06.83 bitrate=4518.6kbits/s speed=0.18x    frame= 4061 fps= 11 q=31.0 size=   37120kB time=00:01:06.93 bitrate=4543.1kbits/s speed=0.18x    frame= 4067 fps= 11 q=31.0 size=   37120kB time=00:01:07.03 bitrate=4536.4kbits/s speed=0.18x    frame= 4073 fps= 11 q=31.0 size=   37120kB time=00:01:07.13 bitrate=4529.6kbits/s speed=0.18x    frame= 4079 fps= 11 q=31.0 size=   37120kB time=00:01:07.23 bitrate=4522.9kbits/s speed=0.18x    frame= 4085 fps= 11 q=31.0 size=   37120kB time=00:01:07.33 bitrate=4516.1kbits/s speed=0.18x    frame= 4090 fps= 11 q=31.0 size=   37120kB time=00:01:07.41 bitrate=4510.6kbits/s speed=0.18x    frame= 4095 fps= 11 q=31.0 size=   37120kB time=00:01:07.50 bitrate=4505.0kbits/s speed=0.18x    frame= 4101 fps= 11 q=31.0 size=   37120kB time=00:01:07.60 bitrate=4498.3kbits/s speed=0.18x    frame= 4106 fps= 11 q=31.0 size=   37120kB time=00:01:07.68 bitrate=4492.8kbits/s speed=0.18x    frame= 4112 fps= 11 q=31.0 size=   37120kB time=00:01:07.78 bitrate=4486.2kbits/s speed=0.18x    frame= 4118 fps= 11 q=31.0 size=   37120kB time=00:01:07.88 bitrate=4479.6kbits/s speed=0.18x    frame= 4124 fps= 11 q=31.0 size=   37120kB time=00:01:07.98 bitrate=4473.0kbits/s speed=0.18x    frame= 4130 fps= 11 q=31.0 size=   37120kB time=00:01:08.08 bitrate=4466.4kbits/s speed=0.18x    frame= 4136 fps= 11 q=31.0 size=   37120kB time=00:01:08.18 bitrate=4459.8kbits/s speed=0.18x    frame= 4143 fps= 11 q=31.0 size=   37120kB time=00:01:08.30 bitrate=4452.2kbits/s speed=0.18x    frame= 4150 fps= 11 q=31.0 size=   37120kB time=00:01:08.41 bitrate=4444.6kbits/s speed=0.18x    frame= 4157 fps= 11 q=31.0 size=   37376kB time=00:01:08.53 bitrate=4467.7kbits/s speed=0.18x    frame= 4163 fps= 11 q=31.0 size=   37376kB time=00:01:08.63 bitrate=4461.2kbits/s speed=0.18x    frame= 4168 fps= 11 q=31.0 size=   37376kB time=00:01:08.71 bitrate=4455.7kbits/s speed=0.18x    frame= 4175 fps= 11 q=31.0 size=   37376kB time=00:01:08.83 bitrate=4448.2kbits/s speed=0.18x    frame= 4185 fps= 11 q=-1.0 Lsize=   37567kB time=00:01:09.73 bitrate=4413.3kbits/s speed=0.182x    
video:37550kB audio:0kB subtitle:0kB other streams:0kB global headers:0kB muxing overhead: 0.047315%
[libx264 @ 0x555756485240] frame I:17    Avg QP:22.16  size: 87901
[libx264 @ 0x555756485240] frame P:4168  Avg QP:27.60  size:  8867
[libx264 @ 0x555756485240] mb I  I16..4: 24.7% 60.2% 15.0%
[libx264 @ 0x555756485240] mb P  I16..4:  0.4%  0.7%  0.4%  P16..4:  9.7%  2.8%  2.1%  0.0%  0.0%    skip:83.9%
[libx264 @ 0x555756485240] 8x8 transform intra:48.9% inter:52.7%
[libx264 @ 0x555756485240] coded y,uvDC,uvAC intra: 23.6% 22.4% 12.4% inter: 3.7% 4.4% 0.8%
[libx264 @ 0x555756485240] i16 v,h,dc,p: 16% 29%  6% 49%
[libx264 @ 0x555756485240] i8 v,h,dc,ddl,ddr,vr,hd,vl,hu: 16%  7% 65%  2%  2%  2%  2%  2%  2%
[libx264 @ 0x555756485240] i4 v,h,dc,ddl,ddr,vr,hd,vl,hu: 31% 19% 22%  5%  4%  5%  4%  6%  4%
[libx264 @ 0x555756485240] i8c dc,h,v,p: 81% 10%  6%  2%
[libx264 @ 0x555756485240] Weighted P-Frames: Y:0.0% UV:0.0%
[libx264 @ 0x555756485240] ref P L0: 61.4% 17.9% 13.8%  6.9%
[libx264 @ 0x555756485240] kb/s:4410.05
